<svg width="50" height="50" viewBox="0 0 50 50" fill="none" xmlns="http://www.w3.org/2000/svg">
<circle cx="25" cy="25" r="25" fill="#1E3A8A"/>
<path d="M18.5462 19.453L28.8102 19.451C29.1398 19.451 29.128 18.9597 28.8102 18.9597L18.5462 18.9617C18.2219 18.9617 18.2209 19.453 18.5462 19.453Z" fill="#E5E7EB"/>
<path d="M18.5462 21.5164H28.8097C29.1339 21.5164 29.1349 21.0251 28.8097 21.0251H18.5462C18.2219 21.0251 18.2209 21.5164 18.5462 21.5164Z" fill="#E5E7EB"/>
<path d="M18.5462 23.5795H28.8097C29.1339 23.5795 29.1349 23.0883 28.8097 23.0883H18.5462C18.2219 23.0883 18.2209 23.5795 18.5462 23.5795Z" fill="#E5E7EB"/>
<path d="M22.9145 31.3417H18.5462C18.2219 31.3417 18.2209 31.8329 18.5462 31.8329H22.9145C23.2387 31.8329 23.2397 31.3417 22.9145 31.3417Z" fill="#E5E7EB"/>
<path d="M36.0193 20.1292L35.6027 19.7127C35.3149 19.4249 34.8482 19.4245 34.5607 19.7126L33.7963 20.4765C33.7964 20.4765 33.7963 20.4766 33.7963 20.4765L31.5382 22.7347V15.0317C31.5382 14.4628 31.0754 14 30.5065 14H15.572C15.4364 14 15.3264 14.11 15.3264 14.2456V15.0569C14.6668 15.1609 14.0683 15.656 14.0049 16.4809C13.9646 17.0031 14.1842 17.4698 14.5423 17.7828C13.8187 18.415 13.8197 19.5091 14.5423 20.1408C13.8187 20.7731 13.8197 21.8671 14.5423 22.4989C13.8187 23.1312 13.8197 24.2252 14.5423 24.857C13.8187 25.4893 13.8197 26.5833 14.5423 27.2151C13.8187 27.8473 13.8197 28.9414 14.5423 29.5731C13.8187 30.2054 13.8197 31.2995 14.5423 31.9312C13.5278 32.8188 14.0226 34.4584 15.3264 34.6631V36.2544C15.3264 36.39 15.4364 36.5 15.572 36.5H30.5065C31.0754 36.5 31.5382 36.0372 31.5382 35.4683V25.6529L35.2554 21.9356L36.0191 21.1715C36.3076 20.8838 36.3074 20.4173 36.0193 20.1292ZM24.8656 30.975L24.757 30.8664L25.1561 29.9698L25.7624 30.5759L24.8656 30.975ZM34.491 21.5188L25.9458 30.0645L25.6678 29.7868L34.2131 21.241L34.491 21.5188ZM31.0469 15.0317V16.7967L28.7415 14.4913H30.5065C30.8045 14.4913 31.0469 14.7337 31.0469 15.0317ZM15.8177 34.9279H30.5065C30.701 34.9279 30.8824 34.8729 31.0378 34.779C30.992 35.0309 30.7715 35.2227 30.5065 35.2227H15.8177V34.9279ZM15.3264 29.1083C15.015 29.0184 14.7903 28.8607 14.786 28.401C14.7825 28.0056 15.0279 27.7451 15.3264 27.6509V29.1083ZM14.787 16.5669C14.8039 16.1963 15.0409 15.9525 15.3264 15.8613V17.3188C14.9966 17.2267 14.7639 17.0648 14.787 16.5669ZM14.787 18.9249C14.8039 18.5544 15.0409 18.3106 15.3264 18.2194V19.6769C14.9966 19.5848 14.7639 19.4229 14.787 18.9249ZM14.787 21.283C14.8039 20.9125 15.0409 20.6687 15.3264 20.5775V22.035C14.9966 21.9429 14.7639 21.781 14.787 21.283ZM14.787 23.6411C14.8039 23.2706 15.0409 23.0268 15.3264 22.9356V24.3919C14.9966 24.3003 14.7639 24.1391 14.787 23.6411ZM14.787 25.9972C14.8051 25.6288 15.0415 25.3851 15.3264 25.2938V26.7519C14.9959 26.6591 14.7631 26.4962 14.787 25.9972ZM14.787 30.7134C14.8051 30.3449 15.0415 30.1013 15.3264 30.0099V31.4658C14.9959 31.3737 14.7631 31.2124 14.787 30.7134ZM15.3264 32.368V33.8568C14.6159 33.6231 14.5966 32.602 15.3264 32.368ZM30.5065 36.0087H15.8177V35.714H30.5065C30.701 35.714 30.8824 35.6589 31.0378 35.565C30.992 35.817 30.7715 36.0087 30.5065 36.0087ZM31.0469 33.8963C31.0469 34.1943 30.8045 34.4367 30.5065 34.4367H15.8177V32.3615C16.0324 32.4264 16.2215 32.5854 16.3143 32.8514C16.4814 33.3308 17.2374 33.0887 17.0498 32.5733C16.787 31.8503 16.2834 31.6739 15.8177 31.5726V30.0034C16.0324 30.0683 16.2215 30.2274 16.3143 30.4933C16.4814 30.9723 17.2379 30.7306 17.0498 30.2142C16.785 29.4882 16.2824 29.3171 15.8177 29.2169V27.6462C16.0307 27.7111 16.2187 27.8678 16.3124 28.1288C16.4828 28.6049 17.233 28.3892 17.0591 27.8832C16.8035 27.1391 16.2914 26.9615 15.8177 26.8589V25.2872C16.0324 25.3522 16.2215 25.5112 16.3143 25.7771C16.4814 26.2561 17.2374 26.0144 17.0498 25.4991C16.787 24.7756 16.2834 24.5995 15.8177 24.4983V22.9294C16.0325 22.9945 16.2219 23.1534 16.3143 23.419C16.4824 23.9005 17.2286 23.6475 17.0552 23.1557C16.7961 22.4204 16.2878 22.2435 15.8177 22.1416V20.5713C16.0325 20.6364 16.2219 20.7954 16.3143 21.061C16.4824 21.5424 17.2286 21.2894 17.0552 20.7977C16.7961 20.0623 16.2878 19.8855 15.8177 19.7836V18.2132C16.0325 18.2783 16.2219 18.4373 16.3143 18.7029C16.4824 19.1843 17.2286 18.9313 17.0552 18.4396C16.7961 17.7042 16.2878 17.5274 15.8177 17.4255V15.8552C16.0325 15.9202 16.2219 16.0792 16.3143 16.3448C16.4828 16.8272 17.2251 16.5738 17.0586 16.0908C16.8414 15.4619 16.347 15.1269 15.8177 15.0525V14.4913H27.9028V16.4072C27.9028 17.0844 28.4538 17.6354 29.131 17.6354H31.0469V23.2259L29.0145 25.2584C28.9756 25.1963 28.9075 25.1517 28.8097 25.1517H18.5462C18.2219 25.1517 18.2209 25.643 18.5462 25.643H28.6299L27.0578 27.2151H18.5462C18.2219 27.2151 18.2209 27.7063 18.5462 27.7063H26.5665L24.9945 29.2784H18.5462C18.2219 29.2784 18.2209 29.7696 18.5462 29.7696H24.7074L24.2395 30.8208C24.1982 30.9137 24.2184 31.0225 24.2903 31.0944L24.0002 31.3844C23.7703 31.6144 24.1181 31.9617 24.3475 31.7318L24.6376 31.4417C24.6847 31.4887 24.7475 31.5136 24.8113 31.5136C24.8451 31.5136 24.8791 31.5067 24.9112 31.4924L26.2887 30.8793C26.3155 30.8674 26.3405 30.8506 26.3625 30.8286L27.4214 29.7697H28.8097C29.1339 29.7697 29.1349 29.2784 28.8097 29.2784H27.9127L31.0469 26.1442V33.8963ZM35.6718 20.824L35.0816 21.4146L34.3174 20.6503L34.9083 20.0598C35.0041 19.9637 35.1594 19.9641 35.2554 20.06L35.6719 20.4766C35.7681 20.5729 35.7682 20.7279 35.6718 20.824Z" fill="#E5E7EB"/>
</svg>
