<svg width="100" height="100" viewBox="0 0 100 100" fill="none" xmlns="http://www.w3.org/2000/svg">
<rect width="100" height="100" rx="10" fill="#1E3A8A"/>
<path d="M86.1911 60.5258C84.073 59.2906 81.9807 58.0084 79.8319 56.8291C73.087 53.1273 66.3023 49.4978 59.5704 45.7727C55.9738 43.7826 54.0544 40.5613 53.1474 36.6162C51.8732 31.074 52.8956 26.0306 56.2611 21.3211C65.2501 27.7679 74.2248 34.2046 83.1995 40.6412L83.3365 40.4787C82.087 39.4165 80.8446 38.3458 79.587 37.2934C71.7851 30.7643 63.9751 24.245 56.1824 17.7051C55.293 16.9586 54.5089 17.0366 53.6486 17.707C47.7299 22.3191 41.7977 26.914 35.8826 31.5308C30.3106 35.8798 24.7362 40.2263 19.1961 44.6159C14.0654 48.6812 12.9993 57.4292 16.989 62.6144C17.1848 62.8689 17.8283 63.0364 18.1298 62.9144C25.477 59.9414 32.8045 56.9199 40.1387 53.9151C44.8239 51.9956 49.508 50.0731 54.2127 48.2028C54.6479 48.0298 55.2866 48.0864 55.7349 48.2702C65.5023 52.275 75.256 56.3135 85.0134 60.3427C85.3659 60.4882 85.73 60.6055 86.0887 60.736C86.1228 60.6659 86.157 60.5959 86.1911 60.5258Z" fill="white"/>
<path d="M85.3094 81.8792C81.4419 81.3056 77.576 80.721 73.7065 80.1612C68.618 79.4251 63.5269 78.7063 58.4362 77.9848C56.8936 77.7662 55.7087 77.0243 54.9867 75.6248C51.752 69.355 51.8746 63.1119 55.1609 56.9018C55.289 56.6597 55.4523 56.4352 55.6095 56.2096C56.6972 54.6484 56.748 54.6523 58.5771 55.2075C66.7561 57.69 74.9394 60.1587 83.1993 62.4359C81.9087 61.8919 80.6215 61.3399 79.327 60.8052C72.2534 57.8836 65.1553 55.0194 58.1167 52.0157C55.9487 51.0905 53.9986 51.025 51.7859 51.8957C40.7201 56.2506 29.6027 60.4742 18.5323 64.8175C17.6939 65.1465 16.8058 65.9117 16.4077 66.7076C14.0546 71.4112 13.9167 76.2009 16.2401 80.9904C16.5461 81.6212 16.8954 82.0009 17.7373 82C40.0288 81.9759 62.3203 81.9888 84.6119 81.9953C84.844 81.9953 85.076 81.9953 85.3081 81.9953L85.3094 81.8792Z" fill="white"/>
</svg>
