<svg width="50" height="50" viewBox="0 0 50 50" fill="none" xmlns="http://www.w3.org/2000/svg">
<circle cx="25" cy="25" r="25" fill="#1E3A8A"/>
<path d="M32.1359 24.6206C33.2227 24.6184 34.2268 24.0392 34.7714 23.0988C34.8284 23.0004 34.8284 22.8796 34.7714 22.7801C34.228 21.8397 33.2227 21.2594 32.1359 21.2594C31.049 21.2594 30.0438 21.8397 29.5003 22.7801C29.4433 22.8785 29.4433 23.0004 29.5003 23.0988C30.046 24.0392 31.049 24.6184 32.1359 24.6206ZM32.1359 21.8956C32.9286 21.8967 33.67 22.287 34.1206 22.94C33.6711 23.5941 32.9286 23.9843 32.1359 23.9843C31.3431 23.9843 30.6006 23.5941 30.1522 22.94C30.6017 22.2881 31.3431 21.8978 32.1359 21.8967V21.8956ZM32.1359 23.9586C32.5485 23.9586 32.9197 23.7104 33.0774 23.3302C33.235 22.9489 33.1478 22.5106 32.8571 22.2199C32.5653 21.928 32.1269 21.8408 31.7456 21.9996C31.3655 22.1573 31.1172 22.5285 31.1183 22.9411C31.1183 23.5024 31.5746 23.9587 32.1359 23.9598L32.1359 23.9586ZM32.1359 22.5576C32.2902 22.5576 32.4299 22.6504 32.4892 22.7935C32.5485 22.9366 32.516 23.101 32.4065 23.2106C32.2969 23.319 32.1325 23.3526 31.9894 23.2933C31.8463 23.2341 31.7535 23.0943 31.7535 22.94C31.7546 22.7298 31.9257 22.5598 32.1359 22.5598L32.1359 22.5576ZM31.172 26.5382C31.4884 26.6232 31.8149 26.6668 32.1426 26.6668C34.1072 26.6668 35.7353 25.1438 35.865 23.1825C35.9947 21.2224 34.5802 19.497 32.6335 19.2388C30.6856 18.9816 28.8707 20.2787 28.4851 22.2053C28.1004 24.1319 29.2756 26.0272 31.172 26.5382ZM29.1526 22.1416C29.4757 20.9352 30.4944 20.0428 31.7322 19.8796C32.9711 19.7163 34.1855 20.3157 34.8105 21.397C35.4345 22.4782 35.3462 23.8301 34.5858 24.8208C33.8254 25.8115 32.5429 26.2476 31.3363 25.9245C29.6914 25.4806 28.7154 23.7888 29.1526 22.1416ZM36.9003 22.9412C36.8992 21.6776 36.396 20.4666 35.5037 19.5731C34.6103 18.6808 33.3993 18.1776 32.1356 18.1765H32.1032V14.3187C32.1032 14.1431 31.9612 14 31.7856 14H16.3649C16.1894 14 16.0463 14.1431 16.0463 14.3187V17.9003L14.0928 19.8537C14.0335 19.913 14 19.9935 14 20.0785V36.1813C14 36.3569 14.142 36.5 14.3187 36.5H29.7394C29.9149 36.5 30.057 36.3569 30.057 36.1813V34.6964H30.6865V34.835C30.6809 35.2231 30.8318 35.5976 31.1036 35.8738C31.3764 36.15 31.7487 36.3054 32.1368 36.3054C32.5248 36.3054 32.896 36.15 33.1688 35.8738C33.4417 35.5976 33.5915 35.2231 33.5859 34.835V30.8398C33.5859 30.3981 33.3846 29.9811 33.0391 29.706V27.6195C34.1249 27.4081 35.1044 26.8256 35.8088 25.9724C36.5133 25.1192 36.8992 24.0471 36.9003 22.9412ZM36.264 22.9412C36.264 24.0358 35.8291 25.0858 35.0553 25.8606C34.2804 26.6344 33.2304 27.0694 32.1358 27.0694C31.0411 27.0694 29.9911 26.6344 29.2163 25.8606C28.4425 25.0858 28.0075 24.0358 28.0075 22.9412C28.0075 21.8465 28.4425 20.7965 29.2163 20.0217C29.9912 19.2479 31.0411 18.8129 32.1358 18.8129C33.2305 18.814 34.2793 19.2501 35.053 20.0239C35.8267 20.7977 36.2629 21.8466 36.264 22.9412ZM16.6849 14.6375H31.4673V18.2246V18.2235C30.9775 18.2928 30.5023 18.437 30.0573 18.6528V16.1202C30.0562 15.9457 29.9141 15.8037 29.7397 15.8037H18.2762C18.1912 15.8037 18.1107 15.8372 18.0514 15.8965L16.6828 17.264L16.6849 14.6375ZM17.9596 16.8895V19.7598H15.086L17.9596 16.8895ZM14.6385 35.8638V20.3961H18.276C18.4515 20.3961 18.5935 20.2541 18.5935 20.0786V16.4389H29.4207V19.0286C28.1371 19.9175 27.3711 21.379 27.3711 22.9411C27.3711 24.502 28.1371 25.9645 29.4207 26.8536V35.8628L14.6385 35.8638ZM30.0592 34.0624V27.227C30.4327 27.4092 30.8285 27.5412 31.2367 27.6195V29.706C30.8901 29.9811 30.6888 30.3981 30.6888 30.8398V34.0613L30.0592 34.0624ZM32.9498 34.8362C32.9498 35.2857 32.5853 35.6502 32.1369 35.6502C31.6874 35.6502 31.3229 35.2857 31.3229 34.8362V30.8398C31.3229 30.3903 31.6874 30.0258 32.1369 30.0258C32.5853 30.0258 32.9498 30.3903 32.9498 30.8398V34.8362ZM32.4019 29.4151C32.2264 29.3816 32.0452 29.3816 31.8696 29.4151V27.6976C31.958 27.7021 32.0463 27.7043 32.1358 27.7054C32.2252 27.7054 32.3136 27.7032 32.4019 27.6976L32.4019 29.4151ZM18.5421 24.6058H16.0799C15.9044 24.6058 15.7623 24.7478 15.7623 24.9234V27.3856C15.7623 27.5611 15.9043 27.7032 16.0799 27.7032H18.5421C18.7177 27.7032 18.8597 27.5612 18.8597 27.3856V24.9234C18.8608 24.8395 18.8273 24.7579 18.7669 24.6975C18.7076 24.6382 18.6271 24.6047 18.5421 24.6047L18.5421 24.6058ZM18.2246 27.068L16.3975 27.0669V25.2409H18.2246V27.068ZM20.0975 21.8439C20.0975 21.6684 20.2395 21.5252 20.4151 21.5252H26.0004C26.176 21.5252 26.318 21.6684 26.318 21.8439C26.318 22.0195 26.176 22.1615 26.0004 22.1615H20.4162C20.3313 22.1615 20.2507 22.1279 20.1904 22.0687C20.1311 22.0083 20.0975 21.9278 20.0975 21.8439ZM20.0975 23.236C20.0975 23.0594 20.2395 22.9174 20.4151 22.9174H26.0004C26.176 22.9174 26.318 23.0594 26.318 23.236C26.318 23.4116 26.176 23.5536 26.0004 23.5536H20.4162C20.3313 23.5536 20.2507 23.5201 20.1904 23.4608C20.1311 23.4015 20.0975 23.3199 20.0975 23.236ZM20.0975 25.4579C20.0975 25.2823 20.2395 25.1392 20.4151 25.1392H26.2732C26.4488 25.1392 26.5908 25.2823 26.5908 25.4579C26.5908 25.6334 26.4488 25.7754 26.2732 25.7754H20.4162C20.3313 25.7754 20.2507 25.7419 20.1904 25.6826C20.1311 25.6234 20.0975 25.5428 20.0975 25.4579ZM20.0975 26.85C20.0975 26.6733 20.2395 26.5313 20.4151 26.5313H27.037C27.2125 26.5313 27.3545 26.6733 27.3545 26.85C27.3545 27.0255 27.2125 27.1676 27.037 27.1676H20.4162C20.3313 27.1676 20.2507 27.134 20.1904 27.0747C20.1311 27.0155 20.0975 26.9338 20.0975 26.85ZM28.4435 29.0718C28.4435 29.1557 28.4099 29.2362 28.3507 29.2965C28.2903 29.3558 28.2098 29.3894 28.1248 29.3894H20.416C20.2438 29.3849 20.1074 29.244 20.1074 29.0718C20.1074 28.8996 20.2438 28.7587 20.416 28.7531H28.126C28.2098 28.7531 28.2914 28.7866 28.3507 28.847C28.41 28.9063 28.4435 28.9879 28.4435 29.0718ZM28.4435 30.4639C28.4435 30.6395 28.3004 30.7815 28.1248 30.7815H20.416C20.2438 30.777 20.1074 30.6361 20.1074 30.4639C20.1074 30.2917 20.2438 30.1508 20.416 30.1452H28.126C28.2098 30.1452 28.2914 30.1788 28.3507 30.2392C28.4111 30.2984 28.4435 30.3801 28.4435 30.4639ZM28.4435 32.6857C28.4435 32.7696 28.4099 32.8512 28.3507 32.9105C28.2903 32.9697 28.2098 33.0033 28.1248 33.0033H20.416C20.2405 33.0033 20.0974 32.8613 20.0974 32.6857C20.0974 32.5102 20.2405 32.367 20.416 32.367H28.126C28.2098 32.367 28.2914 32.4006 28.3507 32.461C28.4111 32.5202 28.4435 32.6019 28.4435 32.6857ZM28.4435 34.0779C28.4435 34.1617 28.4099 34.2433 28.3507 34.3026C28.2903 34.3619 28.2098 34.3954 28.1248 34.3954H20.416C20.2405 34.3954 20.0974 34.2534 20.0974 34.0779C20.0974 33.9023 20.2405 33.7592 20.416 33.7592H28.126C28.2098 33.7592 28.2914 33.7927 28.3507 33.8531C28.4111 33.9124 28.4435 33.994 28.4435 34.0779ZM20.0975 17.7211C20.0975 17.5456 20.2395 17.4035 20.4151 17.4035H28.1262C28.3017 17.4035 28.4437 17.5455 28.4437 17.7211C28.4437 17.8967 28.3017 18.0398 28.1262 18.0398H20.4162C20.3313 18.0398 20.2507 18.0062 20.1904 17.9459C20.1311 17.8866 20.0975 17.8061 20.0975 17.7211ZM20.0975 19.1132C20.0975 18.9377 20.2395 18.7957 20.4151 18.7957H28.1262C28.3017 18.7957 28.4437 18.9377 28.4437 19.1132C28.4437 19.2888 28.3017 19.4319 28.1262 19.4319H20.4162C20.3313 19.4319 20.2507 19.3984 20.1904 19.338C20.1311 19.2787 20.0975 19.1982 20.0975 19.1132ZM18.5421 20.9907H16.0799C15.9044 20.9907 15.7623 21.1327 15.7623 21.3082V23.7705C15.7623 23.946 15.9043 24.088 16.0799 24.088H18.5421C18.626 24.088 18.7076 24.0545 18.7669 23.9952C18.8262 23.936 18.8597 23.8543 18.8597 23.7705V21.3082C18.8597 21.2244 18.8262 21.1427 18.7669 21.0835C18.7076 21.0242 18.626 20.9907 18.5421 20.9907ZM18.2246 23.4529L16.3975 23.4518V21.6269H18.2246V23.4529ZM18.5421 28.2184H16.0799V28.2173C15.9044 28.2173 15.7623 28.3593 15.7623 28.5349V30.9971C15.7612 31.0821 15.7948 31.1637 15.854 31.2241C15.9133 31.2833 15.9949 31.318 16.0788 31.318H18.541C18.6249 31.318 18.7065 31.2845 18.7658 31.2252C18.825 31.1659 18.8586 31.0843 18.8586 31.0004V28.5382C18.8597 28.4544 18.8261 28.3727 18.7669 28.3123C18.7076 28.252 18.6271 28.2184 18.5421 28.2184ZM18.2246 30.6806L16.3975 30.6795V28.8547H18.2246V30.6806ZM18.5421 31.8335H16.0799C15.9044 31.8335 15.7623 31.9755 15.7623 32.151V34.6133C15.7623 34.7888 15.9043 34.9319 16.0799 34.9319H18.5421C18.626 34.9319 18.7076 34.8984 18.7669 34.838C18.8273 34.7788 18.8597 34.6971 18.8597 34.6133V32.151C18.8597 32.0672 18.8262 31.9867 18.7669 31.9263C18.7076 31.867 18.626 31.8335 18.5421 31.8335ZM18.2246 34.2957H16.3975V32.4686H18.2246V34.2957Z" fill="#E5E7EB"/>
</svg>
