<svg width="26" height="26" viewBox="0 0 26 26" fill="none" xmlns="http://www.w3.org/2000/svg">
<circle cx="13" cy="13" r="12.5" stroke="#1E3A8A"/>
<path d="M13.0672 6.5C10.9379 6.5 9.21204 8.22587 9.21204 10.3552C9.21204 11.4535 10.1758 13.1569 10.9827 14.3897C11.4983 15.1966 11.969 15.8018 12.2155 16.1156C12.8655 16.9449 12.9328 16.9449 13.0672 16.9449C13.2017 16.9449 13.269 16.9449 13.919 16.138C14.1655 15.8242 14.6362 15.1966 15.1517 14.4121C15.9586 13.1794 16.9224 11.4759 16.9224 10.3552C16.9224 8.22587 15.1966 6.5 13.0672 6.5ZM13.0672 16.2052C12.3276 15.3535 9.81721 11.9018 9.81721 10.3328C9.81721 8.53967 11.2741 7.08276 13.0672 7.08276C14.8604 7.08276 16.3173 8.53967 16.3173 10.3328C16.3173 11.9018 13.8069 15.3535 13.0672 16.2052Z" fill="#1E3A8A"/>
<path d="M13.0674 8.33789C12.1036 8.33789 11.3639 9.09997 11.3639 10.0414C11.3639 11.0052 12.126 11.7448 13.0674 11.7448C14.0312 11.7448 14.7708 11.0052 14.7708 10.0414C14.7708 9.07755 14.0312 8.33789 13.0674 8.33789ZM13.0674 11.1396C12.4622 11.1396 11.9691 10.6465 11.9691 10.0414C11.9691 9.43617 12.4622 8.94307 13.0674 8.94307C13.6949 8.94307 14.1656 9.43617 14.1656 10.0414C14.1656 10.6465 13.6725 11.1396 13.0674 11.1396Z" fill="#1E3A8A"/>
<path d="M13.0673 18.0431C12.1931 18.0431 7.77759 17.9759 7.77759 16.8552C7.77759 16.6534 7.77759 16.1155 10.3552 15.8241C10.5121 15.8017 10.669 15.9138 10.6914 16.0931C10.7138 16.25 10.6017 16.4069 10.4224 16.4293C9.21208 16.5638 8.65173 16.7655 8.45001 16.8776C8.85346 17.1017 10.4224 17.4603 13.0673 17.4603C15.7121 17.4603 17.2811 17.1017 17.6846 16.8776C17.5052 16.7879 16.9897 16.5862 15.6225 16.4293C15.4656 16.4069 15.3311 16.2724 15.3535 16.0931C15.3759 15.9362 15.5104 15.8017 15.6897 15.8241C18.0432 16.0931 18.357 16.4965 18.357 16.8552C18.357 17.9759 13.9638 18.0431 13.0673 18.0431Z" fill="#1E3A8A"/>
<path d="M13.0897 19.4999C9.25688 19.4999 5.19995 18.6481 5.19995 17.0567C5.19995 15.555 8.74136 14.9722 9.83964 14.8153C9.99654 14.7929 10.1534 14.905 10.1758 15.0843C10.1983 15.2412 10.0862 15.3981 9.90688 15.4205C7.21721 15.7791 5.78271 16.5188 5.78271 17.0567C5.78271 17.8188 8.56204 18.8947 13.0672 18.8947C17.5725 18.8947 20.3518 17.8188 20.3518 17.0567C20.3518 16.5188 18.9621 15.8016 16.3173 15.4429C16.1604 15.4205 16.0483 15.2636 16.0707 15.1067C16.0931 14.9498 16.25 14.8153 16.4069 14.8602C17.4828 14.9947 20.957 15.5774 20.957 17.0792C20.9794 18.6481 16.9224 19.4999 13.0897 19.4999Z" fill="#1E3A8A"/>
</svg>
