<svg width="226" height="54" viewBox="0 0 226 54" fill="none" xmlns="http://www.w3.org/2000/svg">
<g clip-path="url(#clip0_10_111)">
<path d="M58.7541 35.5597C57.0167 34.5466 55.3005 33.4948 53.5379 32.5275C48.0053 29.491 42.44 26.5139 36.918 23.4583C33.9678 21.8259 32.3935 19.1836 31.6495 15.9475C30.6043 11.4014 31.4429 7.26452 34.2036 3.40144C41.5769 8.68958 48.9385 13.9693 56.3002 19.2491L56.4125 19.1158C55.3877 18.2445 54.3685 17.3663 53.337 16.503C46.9374 11.1474 40.5311 5.79985 34.139 0.435354C33.4094 -0.176921 32.7663 -0.112923 32.0606 0.436953C27.2057 4.22012 22.3397 7.98911 17.4878 11.7761C12.9172 15.3435 8.34471 18.9087 3.80038 22.5094C-0.408143 25.844 -1.28262 33.0197 1.98996 37.273C2.15058 37.4817 2.67844 37.6191 2.92575 37.5191C8.95236 35.0804 14.9628 32.602 20.9789 30.1372C24.822 28.5627 28.6642 26.9857 32.5233 25.4516C32.8803 25.3097 33.4042 25.3561 33.7719 25.5069C41.7838 28.7919 49.7844 32.1045 57.7881 35.4096C58.0772 35.5289 58.3759 35.6252 58.6701 35.7322C58.6981 35.6747 58.7261 35.6172 58.7541 35.5597Z" fill="#1E3A8A"/>
<path d="M58.0309 53.0752C54.8585 52.6047 51.6875 52.1251 48.5134 51.666C44.3395 51.0621 40.1634 50.4726 35.9877 49.8808C34.7223 49.7014 33.7504 49.0929 33.1582 47.945C30.5048 42.802 30.6054 37.681 33.3011 32.5871C33.4062 32.3885 33.5401 32.2043 33.669 32.0193C34.5612 30.7387 34.6029 30.7419 36.1033 31.1973C42.8123 33.2336 49.5247 35.2586 56.3 37.1265C55.2414 36.6803 54.1855 36.2275 53.1237 35.7889C47.3215 33.3924 41.4992 31.043 35.7256 28.5792C33.9473 27.8202 32.3477 27.7665 30.5327 28.4808C21.4558 32.0529 12.3365 35.5174 3.25586 39.0801C2.56814 39.3499 1.83973 39.9776 1.51313 40.6304C-0.41702 44.4886 -0.530107 48.4175 1.37568 52.3462C1.6267 52.8636 1.91321 53.1751 2.60376 53.1743C20.8887 53.1546 39.1737 53.1651 57.4587 53.1704C57.6491 53.1705 57.8395 53.1704 58.0298 53.1704L58.0309 53.0752Z" fill="#1E3A8A"/>
<path d="M74.4721 22.8921C73.9291 22.8921 73.4956 22.7666 73.1723 22.5161C72.8481 22.2656 72.687 21.9634 72.687 21.6079V1.31543C72.687 0.876952 72.8745 0.547851 73.2504 0.328613C73.6264 0.109375 74.0336 0 74.4721 0H80.5473C81.6118 0 82.6245 0.151367 83.5854 0.454102C84.5454 0.756836 85.3276 1.30469 85.934 2.09815C86.5395 2.8916 86.8422 4.0293 86.8422 5.51172C86.8422 6.78516 86.602 7.84473 86.1215 8.68994C85.6411 9.53565 84.9946 10.1362 84.1801 10.4907C84.8266 10.7207 85.3911 11.0391 85.8715 11.4458C86.351 11.853 86.727 12.3853 86.9985 13.043C87.27 13.7007 87.4057 14.5518 87.4057 15.5952V16.2529C87.4057 17.8813 87.1284 19.1812 86.5756 20.1519C86.0219 21.1226 85.2709 21.8223 84.3207 22.25C83.3706 22.6782 82.311 22.8921 81.142 22.8921L74.4721 22.8921ZM76.7582 8.89355H80.2651C81.1215 8.89355 81.7534 8.64307 82.1606 8.14209C82.5668 7.64111 82.7709 6.99414 82.7709 6.20068C82.7709 5.63672 82.6665 5.16211 82.4575 4.77588C82.2485 4.38965 81.9565 4.09228 81.5805 3.8833C81.2055 3.6748 80.7563 3.56982 80.2338 3.56982H76.7582V8.89355ZM76.7582 19.3223H80.2651C81.226 19.3223 81.977 19.0508 82.52 18.5078C83.0629 17.9653 83.3344 17.0986 83.3344 15.9087V15.4077C83.3344 14.1758 83.0629 13.3149 82.52 12.8237C81.977 12.3335 81.226 12.0879 80.2651 12.0879H76.7582V19.3223Z" fill="#1E3A8A"/>
<path d="M97.395 23.0801C96.017 23.0801 94.7748 22.8452 93.6684 22.3755C92.562 21.9058 91.6801 21.1436 91.0229 20.0894C90.3647 19.0352 90.0366 17.6309 90.0366 15.8774V7.20264C90.0366 5.44873 90.3647 4.04492 91.0229 2.99072C91.6801 1.93652 92.562 1.17432 93.6684 0.70459C94.7748 0.234863 96.017 0 97.395 0C98.7729 0 100.021 0.234863 101.138 0.70459C102.254 1.17432 103.136 1.93652 103.784 2.99072C104.431 4.04492 104.754 5.44873 104.754 7.20264V15.8774C104.754 17.6309 104.431 19.0352 103.784 20.0894C103.136 21.1436 102.254 21.9058 101.138 22.3755C100.021 22.8452 98.7729 23.0801 97.395 23.0801ZM97.395 19.5098C98.4184 19.5098 99.2221 19.2178 99.8071 18.6333C100.391 18.0488 100.684 17.1299 100.684 15.8774V7.20264C100.684 5.9502 100.391 5.03174 99.8071 4.44678C99.2221 3.86279 98.4184 3.56982 97.395 3.56982C96.3725 3.56982 95.5737 3.86279 94.9995 4.44678C94.4252 5.03174 94.1381 5.9502 94.1381 7.20264V15.8774C94.1381 17.1299 94.4252 18.0488 94.9995 18.6333C95.5737 19.2178 96.3725 19.5098 97.395 19.5098Z" fill="#1E3A8A"/>
<path d="M115.371 23.0801C113.993 23.0801 112.75 22.8452 111.644 22.3755C110.538 21.9058 109.656 21.1436 108.998 20.0894C108.34 19.0352 108.012 17.6309 108.012 15.8774V7.20264C108.012 5.44873 108.34 4.04492 108.998 2.99072C109.656 1.93652 110.538 1.17432 111.644 0.70459C112.75 0.234863 113.993 0 115.371 0C116.748 0 117.997 0.234863 119.114 0.70459C120.23 1.17432 121.112 1.93652 121.759 2.99072C122.407 4.04492 122.73 5.44873 122.73 7.20264V15.8774C122.73 17.6309 122.407 19.0352 121.759 20.0894C121.112 21.1436 120.23 21.9058 119.114 22.3755C117.997 22.8452 116.748 23.0801 115.371 23.0801ZM115.371 19.5098C116.394 19.5098 117.198 19.2178 117.783 18.6333C118.367 18.0488 118.66 17.1299 118.66 15.8774V7.20264C118.66 5.9502 118.367 5.03174 117.783 4.44678C117.198 3.86279 116.394 3.56982 115.371 3.56982C114.348 3.56982 113.549 3.86279 112.975 4.44678C112.401 5.03174 112.114 5.9502 112.114 7.20264V15.8774C112.114 17.1299 112.401 18.0488 112.975 18.6333C113.549 19.2178 114.348 19.5098 115.371 19.5098Z" fill="#1E3A8A"/>
<path d="M128.273 22.8921C127.772 22.8921 127.307 22.7827 126.879 22.5635C126.452 22.3442 126.238 22.0151 126.238 21.5767V1.28369C126.238 0.824708 126.452 0.496094 126.879 0.297364C127.307 0.099122 127.772 1e-06 128.273 1e-06C128.795 1e-06 129.265 0.099122 129.683 0.297364C130.1 0.496094 130.309 0.824708 130.309 1.28369V9.80176L137.105 0.594727C137.375 0.198731 137.741 0 138.201 0C138.555 0 138.915 0.104492 139.281 0.312988C139.646 0.521972 139.955 0.782715 140.205 1.09619C140.456 1.40918 140.581 1.74316 140.581 2.09814C140.581 2.20264 140.56 2.32812 140.518 2.47412C140.476 2.62012 140.403 2.75586 140.299 2.88086L134.724 9.896L141.551 20.293C141.698 20.523 141.771 20.7627 141.771 21.0132C141.771 21.3472 141.65 21.6709 141.411 21.9839C141.17 22.2969 140.863 22.5532 140.487 22.751C140.111 22.9492 139.724 23.0488 139.328 23.0488C139.036 23.0488 138.769 22.9858 138.53 22.8608C138.29 22.7354 138.076 22.5371 137.887 22.2656L132 13.3408L130.309 15.4702V21.5767C130.309 22.0151 130.1 22.3442 129.683 22.5635C129.265 22.7827 128.795 22.8921 128.273 22.8921Z" fill="#1E3A8A"/>
<path d="M74.7543 52.8921C74.2319 52.8921 73.7563 52.7827 73.3286 52.563C72.9008 52.3442 72.687 52.0151 72.687 51.5767V31.2837C72.687 30.9292 72.8325 30.6265 73.1254 30.3755C73.4174 30.125 73.7934 30 74.2524 30H80.5161C81.852 30 83.0581 30.23 84.1332 30.689C85.2084 31.1479 86.059 31.895 86.685 32.9282C87.312 33.9614 87.6245 35.3345 87.6245 37.0464V37.2339C87.6245 38.9458 87.3012 40.3237 86.6538 41.3677C86.0063 42.4116 85.1245 43.1685 84.0082 43.6382C82.8911 44.1079 81.643 44.3423 80.2651 44.3423H76.7582V51.5767C76.7582 52.0151 76.5493 52.3442 76.1323 52.563C75.7143 52.7827 75.2553 52.8921 74.7543 52.8921ZM76.7582 41.1489H80.2651C81.2885 41.1489 82.0922 40.856 82.6772 40.272C83.2612 39.687 83.5541 38.7788 83.5541 37.5474V37.2026C83.5541 35.9712 83.2612 35.0571 82.6772 34.4624C82.0922 33.8677 81.2885 33.5698 80.2651 33.5698H76.7582V41.1489Z" fill="#1E3A8A"/>
<path d="M97.5209 53.0796C96.1225 53.0796 94.8588 52.8452 93.7319 52.3755C92.604 51.9058 91.7065 51.144 91.0385 50.0894C90.3706 49.0356 90.0366 47.6313 90.0366 45.8774V31.2837C90.0366 30.8247 90.2446 30.4961 90.6625 30.2974C91.0805 30.0991 91.5502 30 92.0717 30C92.5727 30 93.0375 30.0991 93.4653 30.2974C93.893 30.4961 94.1079 30.8247 94.1079 31.2837V45.8774C94.1079 47.1089 94.4096 48.022 95.0161 48.6177C95.6206 49.2124 96.4565 49.5103 97.5209 49.5103C98.6059 49.5103 99.4575 49.2124 100.074 48.6177C100.689 48.022 100.998 47.1089 100.998 45.8774V31.2837C100.998 30.8247 101.206 30.4961 101.623 30.2974C102.04 30.0991 102.51 30 103.033 30C103.534 30 103.998 30.0991 104.426 30.2974C104.854 30.4961 105.068 30.8247 105.068 31.2837V45.8774C105.068 47.6313 104.734 49.0356 104.066 50.0894C103.398 51.144 102.495 51.9058 101.357 52.3755C100.219 52.8452 98.9409 53.0796 97.5209 53.0796Z" fill="#1E3A8A"/>
<path d="M110.517 52.8921C109.974 52.8921 109.54 52.7671 109.217 52.5161C108.893 52.2661 108.732 51.9634 108.732 51.6079V31.3159C108.732 30.877 108.919 30.5479 109.295 30.3286C109.671 30.1094 110.079 30 110.517 30H116.592C117.657 30 118.669 30.1514 119.63 30.4541C120.59 30.7568 121.373 31.3042 121.979 32.0981C122.584 32.8921 122.887 34.0298 122.887 35.5112C122.887 36.7856 122.647 37.8442 122.166 38.6899C121.686 39.5356 121.039 40.1362 120.225 40.4907C120.872 40.7212 121.436 41.0386 121.916 41.4458C122.396 41.853 122.772 42.3853 123.043 43.0435C123.315 43.7007 123.451 44.5513 123.451 45.5952V46.2534C123.451 47.8813 123.173 49.1812 122.621 50.1519C122.067 51.1226 121.316 51.8228 120.366 52.2505C119.415 52.6782 118.356 52.8921 117.187 52.8921H110.517ZM112.803 38.894H116.31C117.166 38.894 117.798 38.6431 118.206 38.1421C118.612 37.6411 118.816 36.9946 118.816 36.2007C118.816 35.6372 118.711 35.1626 118.502 34.7759C118.293 34.3892 118.001 34.0923 117.625 33.8833C117.25 33.6743 116.801 33.5698 116.279 33.5698H112.803V38.894ZM112.803 49.3218H116.31C117.271 49.3218 118.022 49.0513 118.565 48.5083C119.108 47.9653 119.379 47.0981 119.379 45.9087V45.4077C119.379 44.1763 119.108 43.3149 118.565 42.8237C118.022 42.3335 117.271 42.0884 116.31 42.0884H112.803V49.3218Z" fill="#1E3A8A"/>
<path d="M128.117 52.8921C127.678 52.8921 127.271 52.7827 126.895 52.563C126.519 52.3442 126.331 52.0151 126.331 51.5767V31.2837C126.331 30.8247 126.545 30.4961 126.973 30.2974C127.401 30.0991 127.866 30 128.367 30C128.889 30 129.359 30.0991 129.777 30.2974C130.194 30.4961 130.403 30.8247 130.403 31.2837V49.3218H138.076C138.493 49.3218 138.795 49.5054 138.983 49.8696C139.171 50.2358 139.265 50.6479 139.265 51.1069C139.265 51.5454 139.171 51.9526 138.983 52.3286C138.795 52.7046 138.493 52.8921 138.076 52.8921H128.117Z" fill="#1E3A8A"/>
<path d="M143.525 52.8921C143.002 52.8921 142.527 52.7827 142.099 52.563C141.671 52.3442 141.457 52.0151 141.457 51.5767V31.2837C141.457 30.8247 141.671 30.4961 142.099 30.2974C142.527 30.0991 143.002 30 143.525 30C144.026 30 144.485 30.0991 144.903 30.2974C145.32 30.4961 145.529 30.8247 145.529 31.2837V51.5767C145.529 52.0151 145.32 52.3442 144.903 52.563C144.485 52.7827 144.026 52.8921 143.525 52.8921Z" fill="#1E3A8A"/>
<path d="M155.424 53.1743C154.067 53.1743 152.841 52.9751 151.745 52.5786C150.649 52.1821 149.783 51.686 149.146 51.0913C148.508 50.4966 148.191 49.897 148.191 49.2905C148.191 48.9985 148.269 48.6802 148.425 48.3354C148.581 47.9907 148.795 47.6987 149.068 47.4585C149.338 47.2192 149.641 47.0981 149.975 47.0981C150.309 47.0981 150.623 47.2192 150.915 47.4585C151.207 47.6987 151.541 47.981 151.917 48.3042C152.293 48.6284 152.752 48.9097 153.295 49.1499C153.837 49.3901 154.505 49.5103 155.299 49.5103C155.925 49.5103 156.505 49.4106 157.038 49.2124C157.57 49.0142 157.998 48.7163 158.322 48.3198C158.645 47.9233 158.807 47.4116 158.807 46.7856C158.807 46.1177 158.629 45.5542 158.274 45.0942C157.919 44.6353 157.439 44.2388 156.833 43.9048C156.228 43.5708 155.571 43.2466 154.861 42.9331C154.151 42.6206 153.436 42.2866 152.715 41.9312C151.996 41.5767 151.337 41.1489 150.743 40.647C150.148 40.146 149.667 39.5308 149.302 38.7993C148.937 38.0688 148.754 37.1714 148.754 36.1069C148.754 34.938 148.978 33.9565 149.427 33.1626C149.876 32.3696 150.471 31.728 151.212 31.2368C151.954 30.7466 152.773 30.3916 153.671 30.1724C154.568 29.9531 155.466 29.8433 156.364 29.8433C156.844 29.8433 157.414 29.8799 158.071 29.9531C158.728 30.0264 159.386 30.1562 160.043 30.3442C160.702 30.5322 161.244 30.7881 161.672 31.1118C162.1 31.4351 162.314 31.8589 162.314 32.3804C162.314 32.6099 162.256 32.8921 162.142 33.2251C162.027 33.5601 161.849 33.8628 161.61 34.1333C161.37 34.4048 161.062 34.5405 160.686 34.5405C160.351 34.5405 160.023 34.4419 159.7 34.2437C159.375 34.0454 158.957 33.8472 158.447 33.6479C157.935 33.4497 157.241 33.3511 156.364 33.3511C155.633 33.3511 154.997 33.4448 154.454 33.6323C153.911 33.8208 153.503 34.0864 153.233 34.4312C152.96 34.7759 152.826 35.2095 152.826 35.731C152.826 36.2739 153.008 36.7329 153.373 37.1089C153.739 37.4849 154.219 37.8188 154.814 38.1108C155.409 38.4038 156.061 38.6958 156.771 38.9878C157.481 39.2808 158.196 39.6196 158.916 40.0054C159.636 40.3921 160.299 40.856 160.905 41.3989C161.51 41.9419 161.991 42.6157 162.345 43.4185C162.701 44.2231 162.877 45.2095 162.877 46.3784C162.877 47.8608 162.554 49.1079 161.907 50.1206C161.259 51.1333 160.377 51.895 159.261 52.4067C158.144 52.9185 156.865 53.1743 155.424 53.1743Z" fill="#1E3A8A"/>
<path d="M167.732 52.8921C167.209 52.8921 166.734 52.7827 166.306 52.563C165.878 52.3442 165.665 52.0151 165.665 51.5767V31.2837C165.665 30.8247 165.878 30.4961 166.306 30.2974C166.734 30.0991 167.209 30 167.732 30C168.233 30 168.692 30.0991 169.11 30.2974C169.527 30.4961 169.736 30.8247 169.736 31.2837V39.4263H176.782V31.2837C176.782 30.8247 176.996 30.4961 177.424 30.2974C177.851 30.0991 178.327 30 178.849 30C179.35 30 179.809 30.0991 180.227 30.2974C180.644 30.4961 180.853 30.8247 180.853 31.2837V51.5767C180.853 52.0151 180.644 52.3442 180.227 52.563C179.809 52.7827 179.35 52.8921 178.849 52.8921C178.327 52.8921 177.851 52.7827 177.424 52.563C176.996 52.3442 176.782 52.0151 176.782 51.5767V42.6206H169.736V51.5767C169.736 52.0151 169.527 52.3442 169.11 52.563C168.692 52.7827 168.233 52.8921 167.732 52.8921Z" fill="#1E3A8A"/>
<path d="M186.71 52.8921C186.188 52.8921 185.712 52.7827 185.285 52.563C184.857 52.3442 184.643 52.0151 184.643 51.5767V31.2837C184.643 30.8247 184.857 30.4961 185.285 30.2974C185.712 30.0991 186.188 30 186.71 30C187.211 30 187.67 30.0991 188.088 30.2974C188.505 30.4961 188.714 30.8247 188.714 31.2837V51.5767C188.714 52.0151 188.505 52.3442 188.088 52.563C187.67 52.7827 187.211 52.8921 186.71 52.8921Z" fill="#1E3A8A"/>
<path d="M194.539 52.8921C194.038 52.8921 193.573 52.7827 193.145 52.563C192.717 52.3442 192.503 52.0151 192.503 51.5767V31.2837C192.503 30.8452 192.717 30.522 193.145 30.313C193.573 30.1045 194.038 30 194.539 30C195.04 30 195.452 30.0522 195.776 30.1562C196.099 30.2612 196.403 30.4648 196.684 30.7671C196.966 31.0698 197.263 31.5347 197.577 32.1606L203.621 43.8413V31.2837C203.621 30.8247 203.834 30.4961 204.263 30.2974C204.69 30.0991 205.155 30 205.657 30C206.178 30 206.648 30.0991 207.066 30.2974C207.483 30.4961 207.692 30.8247 207.692 31.2837V51.5767C207.692 52.0151 207.483 52.3442 207.066 52.563C206.648 52.7827 206.178 52.8921 205.657 52.8921C205.176 52.8921 204.733 52.7983 204.326 52.6099C203.918 52.4224 203.589 52.0884 203.339 51.6079L196.575 39.019V51.5767C196.575 52.0151 196.366 52.3442 195.949 52.563C195.531 52.7827 195.061 52.8921 194.539 52.8921Z" fill="#1E3A8A"/>
<path d="M218.589 53.0796C217.211 53.0796 215.969 52.8452 214.863 52.3755C213.756 51.9058 212.874 51.144 212.217 50.0894C211.559 49.0356 211.231 47.6313 211.231 45.8774V37.2026C211.231 35.4487 211.559 34.0454 212.217 32.9907C212.874 31.937 213.751 31.1743 214.847 30.7046C215.944 30.2349 217.149 30 218.464 30C219.925 30 221.215 30.2402 222.332 30.7202C223.449 31.2007 224.331 31.8901 224.978 32.7866C225.625 33.6851 225.949 34.7603 225.949 36.0122C225.949 36.7856 225.782 37.3022 225.448 37.563C225.114 37.8237 224.602 37.9546 223.914 37.9546C223.371 37.9546 222.901 37.8599 222.504 37.6724C222.108 37.4849 221.899 37.1509 221.878 36.6704C221.857 36.1694 221.757 35.6841 221.58 35.2144C221.403 34.7446 221.089 34.353 220.641 34.0396C220.192 33.7261 219.508 33.5698 218.589 33.5698C217.567 33.5698 216.768 33.8677 216.194 34.4624C215.62 35.0571 215.332 35.9712 215.332 37.2026V45.8774C215.332 47.1089 215.62 48.022 216.194 48.6177C216.768 49.2124 217.567 49.5103 218.589 49.5103C219.613 49.5103 220.416 49.2124 221.001 48.6177C221.585 48.022 221.878 47.1089 221.878 45.8774V44.061H219.341C218.945 44.061 218.637 43.894 218.417 43.5601C218.199 43.2261 218.088 42.8608 218.088 42.4634C218.088 42.0679 218.199 41.7017 218.417 41.3677C218.637 41.0337 218.945 40.8667 219.341 40.8667H224.665C225.082 40.8667 225.401 40.9976 225.621 41.2583C225.839 41.519 225.949 41.8374 225.949 42.2134V45.8774C225.949 47.6313 225.625 49.0356 224.978 50.0894C224.331 51.144 223.449 51.9058 222.332 52.3755C221.215 52.8452 219.967 53.0796 218.589 53.0796Z" fill="#1E3A8A"/>
</g>
<defs>
<clipPath id="clip0_10_111">
<rect width="225.949" height="53.1743" fill="white"/>
</clipPath>
</defs>
</svg>
