<svg width="26" height="26" viewBox="0 0 26 26" fill="none" xmlns="http://www.w3.org/2000/svg">
<circle cx="13" cy="13" r="12.5" stroke="#1E3A8A"/>
<path d="M20.6017 8.62357C20.4949 8.42526 20.3423 8.25745 20.1593 8.12016C19.8847 7.92184 19.5643 7.7998 19.1982 7.7998H7.45176C7.08564 7.7998 6.76528 7.92184 6.49069 8.12016C6.30763 8.25745 6.15508 8.42526 6.04829 8.62357C5.91099 8.8524 5.84998 9.11174 5.84998 9.40159V16.1901C5.84998 16.4952 5.94151 16.7698 6.0788 17.0139C6.20084 17.2122 6.35339 17.3648 6.53646 17.5021C6.79579 17.6851 7.11615 17.7919 7.45176 17.7919H19.1982C19.5338 17.7919 19.8542 17.6851 20.1135 17.5021C20.2966 17.38 20.4491 17.2122 20.5711 17.0139C20.7237 16.7698 20.8 16.4952 20.8 16.1901V9.40159C20.8 9.127 20.7237 8.86766 20.6017 8.62357ZM7.45176 8.47102H19.1982C19.3507 8.47102 19.488 8.50154 19.6101 8.56256L13.7216 13.1391C13.6148 13.2306 13.4775 13.2764 13.3402 13.2764C13.2029 13.2764 13.0656 13.2306 12.9588 13.1391L7.07038 8.56256C7.16191 8.50154 7.29921 8.47102 7.45176 8.47102ZM6.50594 16.2054V9.41684C6.50594 9.2948 6.53645 9.15751 6.58222 9.05072L11.0215 12.4984L6.58222 16.5715C6.53645 16.4494 6.50594 16.3274 6.50594 16.2054ZM19.1982 17.1359H7.45176C7.29921 17.1359 7.16191 17.1054 7.03987 17.0444L11.5401 12.895L12.5165 13.6578C12.7453 13.8256 13.0199 13.9324 13.3097 13.9324C13.5996 13.9324 13.8742 13.8408 14.103 13.6578L15.0793 12.895L19.5796 17.0444C19.488 17.1054 19.3507 17.1359 19.1982 17.1359ZM15.6285 12.4831L20.0677 9.03546C20.1135 9.14225 20.144 9.26429 20.144 9.40159V16.1901C20.144 16.3122 20.1135 16.4494 20.0677 16.5562L15.6285 12.4831Z" fill="#1E3A8A"/>
</svg>
