<svg width="26" height="26" viewBox="0 0 26 26" fill="none" xmlns="http://www.w3.org/2000/svg">
<circle cx="13" cy="13" r="12.5" stroke="#1E3A8A"/>
<path d="M17.1392 19.5L16.5659 19.4922L16.4008 19.461C16.2708 19.4363 16.133 19.4116 16.0017 19.3791C15.249 19.192 14.4976 18.8463 13.6357 18.2939C12.5788 17.6155 11.5375 16.7486 10.3584 15.5646C9.43131 14.6606 8.5949 13.6682 7.8611 12.6014C7.2384 11.6747 6.8653 10.9118 6.6495 10.1112C6.6053 9.95007 6.5754 9.79021 6.5468 9.63555C6.5338 9.56927 6.5221 9.50559 6.5091 9.43801L6.5 9.35613V8.89345L6.5312 8.81807C6.76 8.26441 7.15 7.87321 7.5322 7.521C7.8104 7.26107 8.1042 7.02453 8.37979 6.80489C8.54474 6.6698 8.7394 6.57579 8.94778 6.5306C9.15616 6.48541 9.37229 6.49033 9.57839 6.54495C9.8467 6.60867 10.0798 6.7741 10.2284 7.00633L10.5846 7.5431C10.9564 8.10975 11.3399 8.6946 11.7299 9.25995C11.8783 9.4649 11.9672 9.7069 11.9867 9.95919C12.0062 10.2115 11.9556 10.4643 11.8404 10.6896C11.7715 10.8416 11.6922 10.982 11.6155 11.1185L11.518 11.2939C11.4452 11.4239 11.3737 11.5539 11.2983 11.6838L11.5427 11.9762C11.7624 12.2362 11.9912 12.5156 12.2252 12.7677C12.8673 13.4734 13.566 14.1254 14.3143 14.7172C14.5899 14.5574 14.8785 14.3962 15.1944 14.2247C15.5105 14.0325 15.8876 13.9671 16.25 14.0414C16.3786 14.0708 16.5009 14.1227 16.6114 14.1948C17.4165 14.7242 18.2195 15.2557 19.0203 15.7895C19.4389 16.0689 19.6066 16.6381 19.4311 17.1762C19.3915 17.3048 19.3318 17.4263 19.2543 17.5362C18.8372 18.127 18.3397 18.6568 17.7762 19.1101C17.6533 19.2024 17.5228 19.2842 17.3862 19.3544C17.3368 19.3817 17.2887 19.4077 17.2406 19.435L17.1392 19.5ZM16.6855 18.6669H16.9169L16.9871 18.6292C17.0833 18.5804 17.1755 18.5239 17.2627 18.4603C17.7652 18.0514 18.2085 17.5746 18.5796 17.0436C18.6049 17.0033 18.6241 16.9595 18.6368 16.9137C18.6676 16.8416 18.6764 16.7621 18.6621 16.6851C18.6477 16.608 18.6109 16.537 18.5562 16.4809C17.7562 15.948 16.955 15.4178 16.1525 14.8901C16.1249 14.8726 16.0946 14.8598 16.0628 14.8524C15.8978 14.8241 15.7283 14.8594 15.5883 14.9512C15.2386 15.1396 14.9253 15.3164 14.6302 15.4905C14.5214 15.5613 14.3928 15.5955 14.2632 15.588C14.1337 15.5805 14.0099 15.5318 13.91 15.4489C13.0858 14.8104 12.3185 14.1016 11.6168 13.3305C11.3659 13.0615 11.1306 12.7781 10.9031 12.5039C10.7822 12.3622 10.66 12.2219 10.5456 12.0815C10.4619 11.9894 10.4114 11.8719 10.4022 11.7478C10.393 11.6237 10.4257 11.5 10.4949 11.3966C10.5976 11.2276 10.6925 11.0561 10.7874 10.8858L10.8888 10.7052C10.9603 10.5752 11.0266 10.4608 11.0799 10.3426C11.1349 10.2487 11.1607 10.1406 11.154 10.0321C11.1473 9.92348 11.1084 9.81937 11.0422 9.73303C10.6522 9.15988 10.2622 8.56983 9.88649 8.00058L9.53939 7.46772C9.52223 7.43956 9.49937 7.41531 9.47228 7.39651C9.44519 7.37771 9.41447 7.36478 9.38209 7.35854C9.30019 7.33377 9.21344 7.32959 9.12954 7.34637C9.04563 7.36314 8.96716 7.40036 8.90109 7.45472C8.64109 7.66656 8.35639 7.894 8.0977 8.13314C7.7909 8.41517 7.5023 8.6998 7.3333 9.0611V9.31324C7.345 9.36912 7.3554 9.42501 7.3658 9.48089C7.3931 9.62646 7.4191 9.76292 7.4542 9.89289C7.644 10.596 7.9833 11.2874 8.55269 12.1348C9.25687 13.1576 10.0593 14.1091 10.9486 14.9759C12.09 16.1209 13.0819 16.9462 14.0868 17.5921C14.8668 18.0951 15.5428 18.4057 16.2032 18.5707C16.3176 18.5993 16.4346 18.6201 16.5516 18.6409L16.6855 18.6669Z" fill="#1E3A8A"/>
</svg>
