<svg width="50" height="50" viewBox="0 0 50 50" fill="none" xmlns="http://www.w3.org/2000/svg">
<circle cx="25" cy="25" r="25" fill="#1E3A8A"/>
<path d="M28.15 16.7H20.95C20.8307 16.7 20.7162 16.7474 20.6318 16.8318C20.5474 16.9161 20.5 17.0306 20.5 17.15V18.95C20.5 19.0693 20.5474 19.1838 20.6318 19.2681C20.7162 19.3525 20.8307 19.4 20.95 19.4H28.15C28.2693 19.4 28.3838 19.3525 28.4682 19.2681C28.5526 19.1838 28.6 19.0693 28.6 18.95V17.15C28.6 17.0306 28.5526 16.9161 28.4682 16.8318C28.3838 16.7474 28.2693 16.7 28.15 16.7ZM27.7 18.5H21.4V17.6H27.7V18.5Z" fill="#E5E7EB"/>
<path d="M26.35 20.3H22.75C22.6307 20.3 22.5162 20.3475 22.4319 20.4319C22.3475 20.5162 22.3 20.6307 22.3 20.75C22.3 20.8694 22.3475 20.9839 22.4319 21.0682C22.5162 21.1526 22.6307 21.2 22.75 21.2H26.35C26.4694 21.2 26.5839 21.1526 26.6682 21.0682C26.7526 20.9839 26.8 20.8694 26.8 20.75C26.8 20.6307 26.7526 20.5162 26.6682 20.4319C26.5839 20.3475 26.4694 20.3 26.35 20.3Z" fill="#E5E7EB"/>
<path d="M32.65 20.3C32.7693 20.3 32.8838 20.2526 32.9682 20.1682C33.0526 20.0838 33.1 19.9693 33.1 19.85V16.25C33.1 16.1307 33.0526 16.0162 32.9682 15.9318C32.8838 15.8474 32.7693 15.8 32.65 15.8H31.3V14.45C31.3 14.3307 31.2526 14.2162 31.1682 14.1318C31.0838 14.0474 30.9693 14 30.85 14H16.45C16.3307 14 16.2162 14.0474 16.1318 14.1318C16.0474 14.2162 16 14.3307 16 14.45V36.05C16 36.1693 16.0474 36.2838 16.1318 36.3682C16.2162 36.4526 16.3307 36.5 16.45 36.5H30.85C30.9693 36.5 31.0838 36.4526 31.1682 36.3682C31.2526 36.2838 31.3 36.1693 31.3 36.05V31.1H32.65C32.7693 31.1 32.8838 31.0526 32.9682 30.9682C33.0526 30.8838 33.1 30.7693 33.1 30.65V27.05C33.1 26.9307 33.0526 26.8162 32.9682 26.7318C32.8838 26.6474 32.7693 26.6 32.65 26.6H31.3V25.7H32.65C32.7693 25.7 32.8838 25.6526 32.9682 25.5682C33.0526 25.4838 33.1 25.3693 33.1 25.25V21.65C33.1 21.5307 33.0526 21.4162 32.9682 21.3318C32.8838 21.2474 32.7693 21.2 32.65 21.2H31.3V20.3H32.65ZM32.2 16.7V19.4H31.3V16.7H32.2ZM16.9 14.9H17.8V35.6H16.9V14.9ZM30.4 35.6H18.7V14.9H30.4V35.6ZM32.2 27.5V30.2H31.3V27.5H32.2ZM32.2 22.1V24.8H31.3V22.1H32.2Z" fill="#E5E7EB"/>
</svg>
