<svg width="50" height="50" viewBox="0 0 50 50" fill="none" xmlns="http://www.w3.org/2000/svg">
<circle cx="25" cy="25" r="25" fill="#1E3A8A"/>
<path d="M33.7849 36.4998H18.5688C17.1503 36.4998 16.0002 35.3496 16.0002 33.9312C16.0002 32.5117 17.1504 31.3616 18.5688 31.3616H33.7849C33.9831 31.3616 34.1433 31.5227 34.1433 31.7199V36.1417C34.1433 36.2368 34.1063 36.3278 34.0382 36.3949C33.9711 36.463 33.88 36.4998 33.7849 36.4998ZM18.5688 32.0791C17.5467 32.0791 16.7168 32.908 16.7168 33.9311C16.7168 34.9532 17.5467 35.7831 18.5688 35.7831H33.4267V32.0792L18.5688 32.0791Z" fill="#E5E7EB"/>
<path d="M16.3584 34.2895C16.1602 34.2895 16 34.1293 16 33.9311V16.5687C16.001 15.1502 17.1502 14.0009 18.5686 14.0001H33.7847C33.983 14.0001 34.1431 14.1603 34.1431 14.3585V31.7199C34.1431 31.9181 33.9829 32.0792 33.7847 32.0792C33.5865 32.0792 33.4264 31.9181 33.4264 31.7199V14.7168H18.5685C17.5464 14.7188 16.7185 15.5466 16.7165 16.5687V33.9311C16.7165 34.0262 16.6795 34.1173 16.6114 34.1844C16.5444 34.2515 16.4535 34.2895 16.3584 34.2895Z" fill="#E5E7EB"/>
<path d="M18.5688 32.0791C18.3705 32.0791 18.2104 31.9179 18.2104 31.7197V14.3584C18.2104 14.1602 18.3706 14 18.5688 14C18.767 14 18.9281 14.1602 18.9281 14.3584V31.7197C18.9281 31.8158 18.8901 31.9069 18.823 31.974C18.7549 32.0411 18.6639 32.0791 18.5688 32.0791Z" fill="#E5E7EB"/>
<path d="M33.785 32.0791H18.5688C18.3706 32.0791 18.2095 31.9179 18.2095 31.7197V14.3584C18.2095 14.1602 18.3706 14 18.5688 14H33.785C33.9832 14 34.1433 14.1602 34.1433 14.3584V31.7197C34.1433 31.8158 34.1063 31.9069 34.0382 31.974C33.9712 32.0411 33.8801 32.0791 33.785 32.0791ZM18.9271 31.3613H33.4264V14.7168H18.9271V31.3613Z" fill="#E5E7EB"/>
<path d="M31.8628 30.1572H20.4908C20.2926 30.1572 20.1314 29.996 20.1314 29.7978V16.2805C20.1314 16.0823 20.2926 15.9221 20.4908 15.9221H31.8628C32.061 15.9221 32.2212 16.0823 32.2212 16.2805V29.7978C32.2212 29.8939 32.1842 29.985 32.1161 30.0521C32.049 30.1191 31.9579 30.1572 31.8628 30.1572ZM20.849 29.4394H31.5043V16.6389H20.849V29.4394Z" fill="#E5E7EB"/>
<path d="M29.6844 22.6164H22.669C22.4708 22.6164 22.3096 22.4562 22.3096 22.258V18.4591C22.3096 18.2609 22.4708 18.1007 22.669 18.1007H29.6844C29.8826 18.1007 30.0428 18.2609 30.0428 18.4591V22.258C30.0428 22.3531 30.0058 22.4442 29.9377 22.5113C29.8706 22.5794 29.7795 22.6164 29.6844 22.6164ZM23.0273 21.8987L29.3259 21.8997V18.8175H23.0273V21.8987Z" fill="#E5E7EB"/>
<path d="M29.6844 24.4653H22.669C22.4708 24.4653 22.3096 24.3041 22.3096 24.1059C22.3096 23.9077 22.4708 23.7476 22.669 23.7476H29.6844C29.8826 23.7476 30.0428 23.9077 30.0428 24.1059C30.0428 24.3041 29.8826 24.4653 29.6844 24.4653Z" fill="#E5E7EB"/>
<path d="M29.6844 26.3873H22.669C22.4708 26.3873 22.3096 26.2261 22.3096 26.0279C22.3096 25.8297 22.4708 25.6696 22.669 25.6696H29.6844C29.8826 25.6696 30.0428 25.8297 30.0428 26.0279C30.0428 26.2261 29.8826 26.3873 29.6844 26.3873Z" fill="#E5E7EB"/>
<path d="M29.6844 28.3093H22.669C22.4708 28.3093 22.3096 28.1481 22.3096 27.9499C22.3096 27.7517 22.4708 27.5916 22.669 27.5916H29.6844C29.8826 27.5916 30.0428 27.7517 30.0428 27.9499C30.0428 28.1481 29.8826 28.3093 29.6844 28.3093Z" fill="#E5E7EB"/>
<path d="M33.7848 33.5527H29.5154C29.3171 33.5527 29.157 33.3925 29.157 33.1943C29.157 32.9961 29.3172 32.8359 29.5154 32.8359H33.7848C33.9831 32.8359 34.1432 32.9961 34.1432 33.1943C34.1432 33.3925 33.983 33.5527 33.7848 33.5527Z" fill="#E5E7EB"/>
<path d="M33.7848 35.0262H29.5154C29.3171 35.0262 29.157 34.866 29.157 34.6678C29.157 34.4696 29.3172 34.3085 29.5154 34.3085H33.7848C33.9831 34.3085 34.1432 34.4696 34.1432 34.6678C34.1432 34.866 33.983 35.0262 33.7848 35.0262Z" fill="#E5E7EB"/>
<path d="M33.7848 33.5527H29.5154C29.3171 33.5527 29.157 33.3925 29.157 33.1943C29.157 32.9961 29.3172 32.8359 29.5154 32.8359H33.7848C33.9831 32.8359 34.1432 32.9961 34.1432 33.1943C34.1432 33.3925 33.983 33.5527 33.7848 33.5527Z" fill="#E5E7EB"/>
<path d="M33.7848 35.0262H29.5154C29.3171 35.0262 29.157 34.866 29.157 34.6678C29.157 34.4696 29.3172 34.3085 29.5154 34.3085H33.7848C33.9831 34.3085 34.1432 34.4696 34.1432 34.6678C34.1432 34.866 33.983 35.0262 33.7848 35.0262Z" fill="#E5E7EB"/>
</svg>
