<svg width="50" height="50" viewBox="0 0 50 50" fill="none" xmlns="http://www.w3.org/2000/svg">
<circle cx="25" cy="25" r="25" fill="#1E3A8A"/>
<path d="M36.0195 14H14.4805C14.4174 14 14.3549 14.0124 14.2966 14.0366C14.2383 14.0607 14.1854 14.0961 14.1407 14.1407C14.0961 14.1854 14.0607 14.2383 14.0366 14.2966C14.0124 14.3549 14 14.4174 14 14.4805V36.0195C14 36.0826 14.0124 36.1451 14.0366 36.2034C14.0607 36.2617 14.0961 36.3146 14.1407 36.3593C14.1854 36.4039 14.2383 36.4393 14.2966 36.4634C14.3549 36.4876 14.4174 36.5 14.4805 36.5H36.0195C36.0826 36.5 36.1451 36.4876 36.2034 36.4634C36.2617 36.4393 36.3146 36.4039 36.3593 36.3593C36.4039 36.3146 36.4393 36.2617 36.4634 36.2034C36.4876 36.1451 36.5 36.0826 36.5 36.0195V14.4805C36.5 14.4174 36.4876 14.3549 36.4634 14.2966C36.4393 14.2383 36.4039 14.1854 36.3593 14.1407C36.3146 14.0961 36.2617 14.0607 36.2034 14.0366C36.1451 14.0124 36.0826 14 36.0195 14ZM35.5389 14.9611V17.3243H14.9611V14.9611H35.5389ZM14.9611 35.5389V18.2853H35.5389V35.5389H14.9611Z" fill="#E5E7EB"/>
<path d="M16.6793 16.6737C16.9184 16.6737 17.1122 16.4799 17.1122 16.2408C17.1122 16.0018 16.9184 15.808 16.6793 15.808C16.4403 15.808 16.2465 16.0018 16.2465 16.2408C16.2465 16.4799 16.4403 16.6737 16.6793 16.6737Z" fill="#E5E7EB"/>
<path d="M19.0111 16.6737C19.2502 16.6737 19.444 16.4799 19.444 16.2408C19.444 16.0018 19.2502 15.808 19.0111 15.808C18.772 15.808 18.5782 16.0018 18.5782 16.2408C18.5782 16.4799 18.772 16.6737 19.0111 16.6737Z" fill="#E5E7EB"/>
<path d="M21.3427 16.6737C21.5818 16.6737 21.7756 16.4799 21.7756 16.2408C21.7756 16.0018 21.5818 15.808 21.3427 15.808C21.1036 15.808 20.9099 16.0018 20.9099 16.2408C20.9099 16.4799 21.1036 16.6737 21.3427 16.6737Z" fill="#E5E7EB"/>
<path d="M17.4064 28.8585H27.3102C27.3733 28.8585 27.4358 28.8461 27.4941 28.8219C27.5524 28.7978 27.6054 28.7624 27.65 28.7178C27.6946 28.6732 27.73 28.6202 27.7542 28.5619C27.7783 28.5036 27.7907 28.4411 27.7907 28.378V20.679C27.7907 20.6159 27.7783 20.5534 27.7542 20.4951C27.73 20.4368 27.6946 20.3838 27.65 20.3392C27.6054 20.2946 27.5524 20.2592 27.4941 20.2351C27.4358 20.2109 27.3733 20.1985 27.3102 20.1985H17.4064C17.3433 20.1985 17.2808 20.2109 17.2225 20.2351C17.1642 20.2592 17.1113 20.2946 17.0666 20.3392C17.022 20.3838 16.9866 20.4368 16.9625 20.4951C16.9383 20.5534 16.9259 20.6159 16.9259 20.679V28.378C16.9259 28.4411 16.9383 28.5036 16.9625 28.5619C16.9866 28.6202 17.022 28.6732 17.0666 28.7178C17.1113 28.7624 17.1642 28.7978 17.2225 28.8219C17.2808 28.8461 17.3433 28.8585 17.4064 28.8585ZM17.887 21.1595H26.8297V27.8975H17.887V21.1595Z" fill="#E5E7EB"/>
<path d="M33.0935 20.3716H29.5958C29.4683 20.3716 29.3461 20.4222 29.256 20.5123C29.1659 20.6024 29.1152 20.7247 29.1152 20.8521C29.1152 20.9796 29.1659 21.1018 29.256 21.1919C29.3461 21.282 29.4683 21.3326 29.5958 21.3326H33.0935C33.2209 21.3326 33.3432 21.282 33.4333 21.1919C33.5234 21.1018 33.574 20.9796 33.574 20.8521C33.574 20.7247 33.5234 20.6024 33.4333 20.5123C33.3432 20.4222 33.2209 20.3716 33.0935 20.3716Z" fill="#E5E7EB"/>
<path d="M33.0935 22.8804H29.5958C29.4683 22.8804 29.3461 22.931 29.256 23.0211C29.1659 23.1112 29.1152 23.2335 29.1152 23.3609C29.1152 23.4883 29.1659 23.6106 29.256 23.7007C29.3461 23.7908 29.4683 23.8414 29.5958 23.8414H33.0935C33.2209 23.8414 33.3432 23.7908 33.4333 23.7007C33.5234 23.6106 33.574 23.4883 33.574 23.3609C33.574 23.2335 33.5234 23.1112 33.4333 23.0211C33.3432 22.931 33.2209 22.8804 33.0935 22.8804Z" fill="#E5E7EB"/>
<path d="M33.0935 25.3888H29.5958C29.4683 25.3888 29.3461 25.4394 29.256 25.5295C29.1659 25.6197 29.1152 25.7419 29.1152 25.8693C29.1152 25.9968 29.1659 26.119 29.256 26.2091C29.3461 26.2992 29.4683 26.3499 29.5958 26.3499H33.0935C33.2209 26.3499 33.3432 26.2992 33.4333 26.2091C33.5234 26.119 33.574 25.9968 33.574 25.8693C33.574 25.7419 33.5234 25.6197 33.4333 25.5295C33.3432 25.4394 33.2209 25.3888 33.0935 25.3888Z" fill="#E5E7EB"/>
<path d="M33.0935 27.8975H29.5958C29.4683 27.8975 29.3461 27.9481 29.256 28.0382C29.1659 28.1283 29.1152 28.2505 29.1152 28.378C29.1152 28.5054 29.1659 28.6277 29.256 28.7178C29.3461 28.8079 29.4683 28.8585 29.5958 28.8585H33.0935C33.2209 28.8585 33.3432 28.8079 33.4333 28.7178C33.5234 28.6277 33.574 28.5054 33.574 28.378C33.574 28.2505 33.5234 28.1283 33.4333 28.0382C33.3432 27.9481 33.2209 27.8975 33.0935 27.8975Z" fill="#E5E7EB"/>
<path d="M33.0934 30.7604H17.4064C17.279 30.7604 17.1568 30.811 17.0666 30.9011C16.9765 30.9912 16.9259 31.1135 16.9259 31.2409C16.9259 31.3683 16.9765 31.4906 17.0666 31.5807C17.1568 31.6708 17.279 31.7214 17.4064 31.7214H33.0934C33.2209 31.7214 33.3431 31.6708 33.4332 31.5807C33.5233 31.4906 33.574 31.3683 33.574 31.2409C33.574 31.1135 33.5233 30.9912 33.4332 30.9011C33.3431 30.811 33.2209 30.7604 33.0934 30.7604Z" fill="#E5E7EB"/>
<path d="M33.0934 33.0803H17.4064C17.279 33.0803 17.1568 33.131 17.0666 33.2211C16.9765 33.3112 16.9259 33.4334 16.9259 33.5609C16.9259 33.6883 16.9765 33.8105 17.0666 33.9006C17.1568 33.9908 17.279 34.0414 17.4064 34.0414H33.0934C33.2209 34.0414 33.3431 33.9908 33.4332 33.9006C33.5233 33.8105 33.574 33.6883 33.574 33.5609C33.574 33.4334 33.5233 33.3112 33.4332 33.2211C33.3431 33.131 33.2209 33.0803 33.0934 33.0803Z" fill="#E5E7EB"/>
</svg>
