<svg width="12" height="12" viewBox="0 0 12 12" fill="none" xmlns="http://www.w3.org/2000/svg">
<path fill-rule="evenodd" clip-rule="evenodd" d="M11.3004 1.00721H7.02599V0L0 1.08443V10.5898L7.02599 11.8V10.3071H11.3004C11.4299 10.3137 11.5566 10.2687 11.653 10.182C11.7494 10.0954 11.8076 9.97408 11.8148 9.84466V1.46925C11.8075 1.33991 11.7493 1.21871 11.6529 1.13213C11.5565 1.04556 11.4298 1.00065 11.3004 1.00721ZM11.3679 9.92145H7.01164L7.00447 9.12438H8.05387V8.19607H6.99645L6.99139 7.64753H8.05387V6.71923H6.98337L6.97831 6.17069H8.05387V5.24238H6.97493V4.69384H8.05387V3.76554H6.97493V3.21699H8.05387V2.28869H6.97493V1.44478H11.3679V9.92145Z" fill="white"/>
<path d="M10.4687 2.28742H8.6446V3.21573H10.4687V2.28742Z" fill="white"/>
<path d="M10.4687 3.76469H8.6446V4.693H10.4687V3.76469Z" fill="white"/>
<path d="M10.4687 5.24197H8.6446V6.17027H10.4687V5.24197Z" fill="white"/>
<path d="M10.4687 6.71922H8.6446V7.64753H10.4687V6.71922Z" fill="white"/>
<path d="M10.4687 8.1965H8.6446V9.1248H10.4687V8.1965Z" fill="white"/>
<path fill-rule="evenodd" clip-rule="evenodd" d="M1.83425 3.65204L2.73977 3.60014L3.30899 5.16517L3.98159 3.53558L4.8871 3.48368L3.78749 5.7057L4.8871 7.9332L3.92969 7.86865L3.28325 6.17069L2.63639 7.80409L1.75661 7.72645L2.77859 5.75887L1.83425 3.65204Z" fill="#20744A"/>
</svg>
