<svg width="200" height="42" viewBox="0 0 200 42" fill="none" xmlns="http://www.w3.org/2000/svg">
<g clip-path="url(#clip0_52_65)">
<path d="M55.6156 15.8772V11.3798H77.5527C78.5442 11.3798 79.2308 11.1907 79.6115 10.8127C79.9922 10.4346 80.1821 9.76411 80.1821 8.80113C80.1821 7.83816 79.986 7.15694 79.5937 6.75748C79.2013 6.35446 78.5219 6.15473 77.5527 6.15473H57.1724C56.2495 6.15473 55.5861 6.35624 55.1831 6.75927C54.7792 7.16229 54.5777 7.84707 54.5777 8.8154V25.5658H50.0793V8.7833C50.0793 7.79179 50.2693 6.86983 50.65 6.01564C51.0298 5.16322 51.5372 4.41959 52.1711 3.78474C52.8042 3.15168 53.5532 2.64879 54.4181 2.27965C55.2812 1.91051 56.1978 1.72504 57.1661 1.72504H77.525C78.4925 1.72504 79.4091 1.91051 80.2731 2.27965C81.1371 2.64879 81.8861 3.15168 82.52 3.78474C83.154 4.41959 83.6604 5.16322 84.0412 6.01564C84.421 6.86983 84.6109 7.79179 84.6109 8.7833C84.6109 9.82117 84.421 10.7699 84.0412 11.6223C83.6604 12.4747 83.1477 13.213 82.5031 13.8354C81.8575 14.4595 81.1023 14.9499 80.2383 15.3066C79.3743 15.665 78.4461 15.854 77.4555 15.8772C77.986 16.5477 78.4987 17.2272 78.9936 17.9191C79.4893 18.611 80.002 19.3029 80.5326 19.9948C81.2236 20.9186 81.9262 21.853 82.6413 22.7982C83.3555 23.7433 84.0581 24.667 84.75 25.5658H79.2477L71.9469 15.8772H55.6156Z" fill="#2B2B2B"/>
<path d="M121.772 1.72504V6.15473H95.9259C94.9567 6.15473 94.2818 6.35803 93.901 6.76105C93.5212 7.16407 93.3304 7.84886 93.3304 8.81896C93.3304 9.74271 93.5212 10.4061 93.901 10.8091C94.2818 11.2121 94.9567 11.4136 95.9259 11.4136H121.772V15.9129H95.9259C94.9567 15.9129 94.2818 16.1019 93.901 16.48C93.5212 16.858 93.3304 17.5268 93.3304 18.4897C93.3304 19.4527 93.5212 20.1339 93.901 20.5352C94.2818 20.9364 94.9567 21.1361 95.9259 21.1361H121.772V25.5658H95.9259C94.9567 25.5658 94.0401 25.3821 93.1752 25.013C92.3094 24.6439 91.5596 24.1356 90.9256 23.4901C90.2908 22.8445 89.7843 22.0884 89.4036 21.2235C89.0228 20.3586 88.832 19.4295 88.832 18.438C88.832 17.5624 89.0104 16.7207 89.3688 15.9129C89.7263 15.1051 90.2167 14.3543 90.8391 13.6624C90.2167 12.9705 89.7263 12.2161 89.3688 11.3976C89.0104 10.5773 88.832 9.74271 88.832 8.88851C88.832 7.897 89.0166 6.96256 89.3857 6.08518C89.7549 5.20959 90.256 4.44813 90.8908 3.80079C91.5257 3.15524 92.2756 2.64879 93.1405 2.27965C94.0053 1.91051 94.9335 1.72504 95.9259 1.72504H121.772Z" fill="#2B2B2B"/>
<path d="M158.415 1.72504V6.15473H135.716C134.725 6.15473 134.033 6.35089 133.641 6.74322C133.456 6.92868 133.029 7.98795 132.36 9.92639C131.691 11.863 130.792 14.7127 129.661 18.4719V18.438C129.454 19.4063 129.593 20.0983 130.077 20.5138C130.561 20.9293 131.288 21.1361 132.257 21.1361H158.415V25.5658H132.257C131.773 25.5658 131.282 25.5373 130.786 25.4784C130.29 25.4214 129.788 25.3358 129.281 25.2199C128.151 24.9435 127.147 24.2284 126.271 23.0746C125.832 22.5218 125.527 21.8459 125.354 21.0505C125.181 20.2552 125.117 19.3618 125.164 18.3685C126.34 14.6557 127.256 11.7774 127.914 9.73558C128.572 7.69549 128.992 6.45433 129.177 6.01564C129.523 5.23277 130.019 4.51768 130.665 3.87213C131.334 3.20161 132.101 2.67732 132.966 2.2957C133.831 1.91586 134.748 1.72505 135.716 1.72505L158.415 1.72504Z" fill="#2B2B2B"/>
<path d="M191.009 1.72504C191.978 1.72504 192.883 1.91051 193.725 2.27965C194.567 2.64879 195.311 3.15168 195.957 3.78474C196.602 4.41959 197.111 5.16857 197.48 6.03347C197.848 6.89836 198.033 7.81676 198.033 8.7833V18.4719C198.033 19.4652 197.848 20.3925 197.48 21.2574C197.111 22.1223 196.609 22.8731 195.975 23.5079C195.34 24.141 194.596 24.6439 193.743 25.013C192.889 25.3821 191.978 25.5658 191.009 25.5658H168.623C167.7 25.5658 166.754 25.4624 165.785 25.2537C165.323 25.1396 164.839 24.9203 164.332 24.5975C163.825 24.2747 163.294 23.8592 162.74 23.351C162.348 22.9355 162.036 22.4344 161.806 21.8459C161.575 21.2574 161.46 20.5726 161.46 19.788C161.46 19.3029 161.495 18.8179 161.564 18.3346C162.879 14.6895 163.916 11.8577 164.678 9.839C165.439 7.82032 165.947 6.54706 166.2 6.01564C166.547 5.23277 167.043 4.51767 167.688 3.87212C168.357 3.20161 169.118 2.67732 169.972 2.2957C170.825 1.91586 171.736 1.72504 172.705 1.72504L191.009 1.72504ZM193.605 8.81183C193.605 7.84529 193.402 7.16229 192.998 6.75927C192.595 6.35624 191.932 6.15473 191.009 6.15473H172.705C171.713 6.15473 171.021 6.35089 170.63 6.74143C170.444 6.92511 169.966 7.99152 169.193 9.9353C168.42 11.8791 167.365 14.7395 166.027 18.5129V18.479C165.981 19.0319 166.004 19.4866 166.097 19.8433C166.188 20.1999 166.344 20.4692 166.564 20.6529C166.783 20.8383 167.066 20.9649 167.412 21.0345C167.758 21.1023 168.161 21.1361 168.623 21.1361H191.009C191.932 21.1361 192.595 20.9364 192.998 20.5334C193.402 20.1304 193.605 19.4456 193.605 18.479V8.81183Z" fill="#2B2B2B"/>
<path d="M54.3012 36.5829C53.8895 36.981 53.2605 37.1793 52.4158 37.1793H51.0239V40.2023H50.0793V32.9619H52.4158C53.2333 32.9619 53.8547 33.1602 54.2808 33.5553C54.7062 33.9489 54.9196 34.4591 54.9196 35.0812C54.9196 35.6837 54.713 36.1847 54.3012 36.5829ZM53.5792 36.0576C53.829 35.829 53.9531 35.5036 53.9531 35.0812C53.9531 34.1881 53.4407 33.7415 52.4158 33.7415H51.0239V36.4012H52.4158C52.9426 36.4012 53.3302 36.2862 53.5792 36.0576Z" fill="#2B2B2B"/>
<path d="M57.537 39.8027C56.9829 39.4878 56.5454 39.0473 56.223 38.4827C55.9013 37.9195 55.7401 37.2838 55.7401 36.5768C55.7401 35.8714 55.9013 35.2356 56.223 34.671C56.5454 34.1063 56.9829 33.6674 57.537 33.3525C58.091 33.0376 58.7041 32.8802 59.3754 32.8802C60.0544 32.8802 60.6705 33.0376 61.2245 33.3525C61.7785 33.6674 62.2145 34.1048 62.5331 34.6664C62.8518 35.2265 63.0107 35.8638 63.0107 36.5768C63.0107 37.2913 62.8518 37.9271 62.5331 38.4887C62.2145 39.0488 61.7785 39.4878 61.2245 39.8027C60.6705 40.1175 60.0544 40.275 59.3754 40.275C58.7041 40.275 58.091 40.1175 57.537 39.8027ZM60.7416 39.1018C61.1465 38.8656 61.4652 38.5296 61.6968 38.0936C61.9292 37.6577 62.045 37.1521 62.045 36.5768C62.045 35.9955 61.9292 35.4884 61.6968 35.0555C61.4652 34.6225 61.148 34.2895 60.7469 34.0534C60.345 33.8172 59.8878 33.7007 59.3754 33.7007C58.863 33.7007 58.4059 33.8172 58.0047 34.0534C57.6028 34.2895 57.2857 34.6225 57.0541 35.0555C56.8217 35.4884 56.7059 35.9955 56.7059 36.5768C56.7059 37.1521 56.8217 37.6577 57.0541 38.0936C57.2857 38.5296 57.6043 38.8656 58.01 39.1018C58.4149 39.3364 58.8698 39.4545 59.3754 39.4545C59.881 39.4545 60.3367 39.3364 60.7416 39.1018Z" fill="#2B2B2B"/>
<path d="M73.3558 32.9619L71.2577 40.2023H70.198L68.5155 34.3758L66.7709 40.2023L65.7218 40.2129L63.6964 32.9619H64.7038L66.2827 39.1018L68.0273 32.9619H69.0869L70.7491 39.0806L72.3378 32.9619H73.3558Z" fill="#2B2B2B"/>
<path d="M75.3396 33.7309V36.1515H77.9781V36.931H75.3396V39.4227H78.2899V40.2023H74.395V32.9529H78.2899V33.7309H75.3396Z" fill="#2B2B2B"/>
<path d="M83.5352 40.2023L81.811 37.2414H80.6681V40.2023H79.7235V32.9619H82.06C82.6072 32.9619 83.0697 33.0558 83.4466 33.2435C83.8243 33.4297 84.1066 33.6825 84.2936 34.0019C84.4805 34.3198 84.5736 34.6831 84.5736 35.0918C84.5736 35.5898 84.4298 36.0303 84.143 36.4118C83.8553 36.7918 83.4247 37.0446 82.8494 37.1687L84.6675 40.2023H83.5352ZM80.6681 36.4845H82.06C82.5724 36.4845 82.9569 36.3573 83.2135 36.1045C83.4693 35.8517 83.5972 35.5142 83.5972 35.0918C83.5972 34.6634 83.4708 34.3304 83.2188 34.0942C82.9652 33.8596 82.58 33.7415 82.06 33.7415H80.6681V36.4845Z" fill="#2B2B2B"/>
<path d="M86.9835 33.7309V36.1515H89.622V36.931H86.9835V39.4227H89.9339V40.2023H86.0389V32.9529H89.9339V33.7309H86.9835Z" fill="#2B2B2B"/>
<path d="M95.6726 33.404C96.2508 33.6991 96.6936 34.1185 97.0017 34.6664C97.3097 35.2129 97.4641 35.8578 97.4641 36.598C97.4641 37.3398 97.3097 37.9816 97.0017 38.525C96.6936 39.0685 96.2508 39.4833 95.6726 39.7709C95.0943 40.0585 94.4109 40.2023 93.6214 40.2023H91.3674V32.9619H93.6214C94.4109 32.9619 95.0943 33.1103 95.6726 33.404ZM95.7612 38.681C96.2524 38.186 96.4984 37.4911 96.4984 36.598C96.4984 35.6973 96.2509 34.9949 95.7559 34.4893C95.2608 33.9837 94.5486 33.7309 93.6214 33.7309H92.312V39.4227H93.6214C94.5562 39.4227 95.2692 39.176 95.7612 38.681Z" fill="#2B2B2B"/>
<path d="M105.831 36.7948C106.049 36.9689 106.222 37.1838 106.35 37.4397C106.478 37.6955 106.542 37.9695 106.542 38.2601C106.542 38.6265 106.448 38.958 106.261 39.2517C106.074 39.5468 105.803 39.7784 105.446 39.948C105.09 40.1175 104.669 40.2023 104.184 40.2023H101.484V32.9619H104.08C104.572 32.9619 104.991 33.0437 105.337 33.2072C105.683 33.3691 105.943 33.5902 106.116 33.8657C106.289 34.1427 106.376 34.4545 106.376 34.8012C106.376 35.2311 106.26 35.5853 106.028 35.8653C105.796 36.1469 105.489 36.3482 105.109 36.4739C105.372 36.5148 105.613 36.6222 105.831 36.7948ZM102.428 36.0894H104.018C104.461 36.0894 104.804 35.9849 105.047 35.7775C105.289 35.5702 105.41 35.2825 105.41 34.9147C105.41 34.5484 105.289 34.2608 105.047 34.0534C104.804 33.846 104.455 33.7415 103.997 33.7415H102.428V36.0894ZM105.202 39.0912C105.465 38.8687 105.597 38.5614 105.597 38.1663C105.597 37.7651 105.458 37.4488 105.181 37.2156C104.904 36.984 104.534 36.8675 104.07 36.8675H102.428V39.4227H104.101C104.572 39.4227 104.939 39.3122 105.202 39.0912Z" fill="#2B2B2B"/>
<path d="M112.92 32.9619L110.561 37.4699V40.2023H109.617V37.4699L107.248 32.9619H108.297L110.084 36.6298L111.871 32.9619H112.92Z" fill="#2B2B2B"/>
<path d="M117.703 40.0206C117.325 39.8511 117.03 39.615 116.815 39.3137C116.6 39.0125 116.489 38.6643 116.482 38.2707H117.49C117.525 38.6098 117.665 38.8959 117.911 39.1275C118.157 39.3591 118.515 39.4757 118.985 39.4757C119.436 39.4757 119.791 39.3622 120.05 39.1381C120.31 38.9126 120.44 38.6234 120.44 38.2707C120.44 37.9937 120.364 37.7682 120.211 37.5956C120.059 37.4215 119.869 37.2913 119.64 37.2005C119.411 37.1112 119.103 37.0128 118.716 36.9098C118.238 36.7857 117.855 36.6601 117.568 36.5359C117.281 36.4118 117.035 36.215 116.83 35.9486C116.626 35.6822 116.524 35.3234 116.524 34.8738C116.524 34.4787 116.625 34.1291 116.825 33.8248C117.026 33.5205 117.308 33.2844 117.672 33.1179C118.035 32.9529 118.452 32.8696 118.923 32.8696C119.602 32.8696 120.158 33.0391 120.591 33.3782C121.023 33.7173 121.267 34.1669 121.323 34.7285H120.284C120.249 34.4515 120.104 34.2078 119.848 33.9958C119.592 33.7854 119.252 33.6795 118.83 33.6795C118.435 33.6795 118.113 33.7809 117.864 33.9852C117.615 34.1896 117.49 34.4757 117.49 34.842C117.49 35.1054 117.565 35.3204 117.713 35.4869C117.862 35.6534 118.046 35.7791 118.264 35.8653C118.482 35.9531 118.789 36.0515 119.183 36.162C119.661 36.2937 120.045 36.4239 120.336 36.5511C120.627 36.6798 120.876 36.8765 121.084 37.143C121.292 37.4094 121.395 37.7712 121.395 38.2283C121.395 38.5826 121.302 38.9141 121.115 39.2259C120.928 39.5377 120.651 39.7905 120.284 39.9843C119.917 40.1781 119.484 40.275 118.985 40.275C118.508 40.275 118.08 40.1902 117.703 40.0206Z" fill="#2B2B2B"/>
<path d="M127.009 36.5829C126.597 36.981 125.968 37.1793 125.124 37.1793H123.732V40.2023H122.787V32.9619H125.124C125.941 32.9619 126.563 33.1602 126.989 33.5553C127.414 33.9489 127.628 34.4591 127.628 35.0812C127.628 35.6837 127.421 36.1847 127.009 36.5829ZM126.287 36.0576C126.537 35.829 126.661 35.5036 126.661 35.0812C126.661 34.1881 126.149 33.7415 125.124 33.7415H123.732V36.4012H125.124C125.651 36.4012 126.038 36.2862 126.287 36.0576Z" fill="#2B2B2B"/>
<path d="M129.746 32.9619V40.2023H128.801V32.9619H129.746Z" fill="#2B2B2B"/>
<path d="M135.168 40.2023L133.444 37.2414H132.301V40.2023H131.357V32.9619H133.693C134.24 32.9619 134.703 33.0558 135.08 33.2435C135.457 33.4297 135.74 33.6825 135.927 34.0019C136.114 34.3198 136.207 34.6831 136.207 35.0918C136.207 35.5898 136.063 36.0303 135.776 36.4118C135.489 36.7918 135.058 37.0446 134.483 37.1687L136.301 40.2023H135.168ZM132.301 36.4845H133.693C134.206 36.4845 134.59 36.3573 134.847 36.1045C135.103 35.8517 135.23 35.5142 135.23 35.0918C135.23 34.6634 135.104 34.3304 134.852 34.0942C134.598 33.8596 134.213 33.7415 133.693 33.7415H132.301V36.4845Z" fill="#2B2B2B"/>
<path d="M141.951 38.5916H138.793L138.211 40.2023H137.214L139.831 33.0043H140.922L143.53 40.2023H142.532L141.951 38.5916ZM141.68 37.8242L140.372 34.1669L139.063 37.8242H141.68Z" fill="#2B2B2B"/>
<path d="M145.617 39.4333H148.152V40.2023H144.672V32.9619H145.617V39.4333Z" fill="#2B2B2B"/>
<path d="M153.615 32.9619V33.7309H151.642V40.2023H150.697V33.7309H148.713V32.9619H153.615Z" fill="#2B2B2B"/>
<path d="M155.723 33.7309V36.1515H158.362V36.931H155.723V39.4227H158.673V40.2023H154.778V32.9529H158.673V33.7309H155.723Z" fill="#2B2B2B"/>
<path d="M160.231 34.671C160.55 34.1063 160.984 33.6658 161.535 33.3464C162.085 33.0285 162.696 32.8696 163.368 32.8696C164.158 32.8696 164.846 33.0603 165.435 33.4403C166.023 33.8218 166.453 34.3622 166.723 35.0615H165.591C165.39 34.6241 165.101 34.2895 164.724 34.0534C164.346 33.8172 163.894 33.7007 163.368 33.7007C162.863 33.7007 162.409 33.8172 162.007 34.0534C161.606 34.2895 161.291 34.6225 161.062 35.0555C160.833 35.4884 160.719 35.9955 160.719 36.5768C160.719 37.152 160.833 37.6561 161.062 38.0891C161.291 38.522 161.606 38.855 162.007 39.0912C162.409 39.3258 162.863 39.4439 163.368 39.4439C163.894 39.4439 164.346 39.3289 164.724 39.0957C165.101 38.8641 165.39 38.5296 165.591 38.0936H166.723C166.453 38.7869 166.023 39.3213 165.435 39.6982C164.846 40.0767 164.158 40.2644 163.368 40.2644C162.696 40.2644 162.085 40.1069 161.535 39.7921C160.984 39.4772 160.55 39.0397 160.231 38.4781C159.912 37.9165 159.753 37.2837 159.753 36.5768C159.753 35.8714 159.912 35.2356 160.231 34.671Z" fill="#2B2B2B"/>
<path d="M173.704 32.9619V40.2023H172.758V36.9204H169.071V40.2023H168.126V32.9619H169.071V36.1409H172.758V32.9619H173.704Z" fill="#2B2B2B"/>
<path d="M41.6054 0H0V41.6054H41.6054V0Z" fill="#30B7E6"/>
<path d="M41.6054 33.2843H0V42H41.6054V33.2843Z" fill="#1D83C8"/>
</g>
<defs>
<clipPath id="clip0_52_65">
<rect width="198.033" height="42" fill="white"/>
</clipPath>
</defs>
</svg>
