<svg width="200" height="42" viewBox="0 0 200 42" fill="none" xmlns="http://www.w3.org/2000/svg">
<g clip-path="url(#clip0_9_88)">
<path d="M56.1679 15.8772V11.3798H78.3228C79.3242 11.3798 80.0176 11.1907 80.4021 10.8127C80.7866 10.4346 80.9784 9.76411 80.9784 8.80113C80.9784 7.83816 80.7803 7.15694 80.3841 6.75748C79.9878 6.35446 79.3017 6.15473 78.3228 6.15473H57.7401C56.8081 6.15473 56.1381 6.35624 55.7311 6.75927C55.3232 7.16229 55.1197 7.84707 55.1197 8.8154V25.5658H50.5767V8.7833C50.5767 7.79179 50.7685 6.86983 51.153 6.01564C51.5366 5.16322 52.049 4.41959 52.6892 3.78474C53.3286 3.15168 54.085 2.64879 54.9585 2.27965C55.8302 1.91051 56.7559 1.72504 57.7338 1.72504H78.2949C79.272 1.72504 80.1977 1.91051 81.0702 2.27965C81.9428 2.64879 82.6992 3.15168 83.3395 3.78474C83.9798 4.41959 84.4912 5.16322 84.8757 6.01564C85.2594 6.86983 85.4512 7.79179 85.4512 8.7833C85.4512 9.82117 85.2594 10.7699 84.8757 11.6223C84.4912 12.4747 83.9734 13.213 83.3224 13.8354C82.6704 14.4595 81.9077 14.9499 81.0351 15.3066C80.1625 15.665 79.2251 15.854 78.2247 15.8772C78.7605 16.5477 79.2782 17.2272 79.778 17.9191C80.2787 18.611 80.7965 19.3029 81.3323 19.9948C82.0302 20.9186 82.7398 21.853 83.462 22.7982C84.1833 23.7433 84.8929 24.667 85.5916 25.5658H80.0347L72.6614 15.8772H56.1679Z" fill="white"/>
<path d="M122.981 1.72504V6.15473H96.8785C95.8996 6.15473 95.218 6.35803 94.8334 6.76105C94.4498 7.16407 94.2571 7.84886 94.2571 8.81896C94.2571 9.74271 94.4498 10.4061 94.8334 10.8091C95.218 11.2121 95.8996 11.4136 96.8785 11.4136H122.981V15.9129H96.8785C95.8996 15.9129 95.218 16.1019 94.8334 16.48C94.4498 16.858 94.2571 17.5268 94.2571 18.4897C94.2571 19.4527 94.4498 20.1339 94.8334 20.5352C95.218 20.9364 95.8996 21.1361 96.8785 21.1361H122.981V25.5658H96.8785C95.8996 25.5658 94.9739 25.3821 94.1004 25.013C93.2261 24.6439 92.4687 24.1356 91.8285 23.4901C91.1873 22.8445 90.6758 22.0884 90.2913 21.2235C89.9068 20.3586 89.7141 19.4295 89.7141 18.438C89.7141 17.5624 89.8942 16.7207 90.2562 15.9129C90.6173 15.1051 91.1126 14.3543 91.7411 13.6624C91.1126 12.9705 90.6173 12.2161 90.2562 11.3976C89.8942 10.5773 89.7141 9.74271 89.7141 8.88851C89.7141 7.897 89.9005 6.96256 90.2733 6.08518C90.6461 5.20959 91.1522 4.44813 91.7934 3.80079C92.4345 3.15524 93.1918 2.64879 94.0653 2.27965C94.9388 1.91051 95.8762 1.72504 96.8785 1.72504H122.981Z" fill="white"/>
<path d="M159.988 1.72504V6.15473H137.064C136.063 6.15473 135.364 6.35089 134.968 6.74322C134.781 6.92868 134.35 7.98795 133.675 9.92639C132.999 11.863 132.091 14.7127 130.949 18.4719V18.438C130.74 19.4063 130.879 20.0983 131.368 20.5138C131.857 20.9293 132.591 21.1361 133.57 21.1361H159.988V25.5658H133.57C133.081 25.5658 132.586 25.5373 132.085 25.4784C131.584 25.4214 131.077 25.3358 130.565 25.2199C129.423 24.9435 128.409 24.2284 127.525 23.0746C127.082 22.5218 126.773 21.8459 126.598 21.0505C126.424 20.2552 126.36 19.3618 126.407 18.3685C127.594 14.6557 128.52 11.7774 129.185 9.73558C129.848 7.69549 130.273 6.45433 130.46 6.01564C130.809 5.23277 131.31 4.51768 131.963 3.87213C132.638 3.20161 133.413 2.67732 134.286 2.2957C135.16 1.91586 136.086 1.72505 137.064 1.72505L159.988 1.72504Z" fill="white"/>
<path d="M192.906 1.72504C193.885 1.72504 194.799 1.91051 195.649 2.27965C196.499 2.64879 197.251 3.15168 197.903 3.78474C198.555 4.41959 199.068 5.16857 199.441 6.03347C199.813 6.89836 200 7.81676 200 8.7833V18.4719C200 19.4652 199.813 20.3925 199.441 21.2574C199.068 22.1223 198.561 22.8731 197.921 23.5079C197.28 24.141 196.529 24.6439 195.667 25.013C194.804 25.3821 193.885 25.5658 192.906 25.5658H170.297C169.365 25.5658 168.41 25.4624 167.432 25.2537C166.965 25.1396 166.476 24.9203 165.964 24.5975C165.451 24.2747 164.916 23.8592 164.356 23.351C163.96 22.9355 163.645 22.4344 163.413 21.8459C163.18 21.2574 163.063 20.5726 163.063 19.788C163.063 19.3029 163.098 18.8179 163.169 18.3346C164.496 14.6895 165.544 11.8577 166.313 9.839C167.082 7.82032 167.595 6.54706 167.85 6.01564C168.201 5.23277 168.701 4.51767 169.353 3.87212C170.029 3.20161 170.798 2.67732 171.66 2.2957C172.521 1.91586 173.442 1.72504 174.42 1.72504L192.906 1.72504ZM195.527 8.81183C195.527 7.84529 195.323 7.16229 194.915 6.75927C194.508 6.35624 193.838 6.15473 192.906 6.15473H174.42C173.418 6.15473 172.719 6.35089 172.324 6.74143C172.137 6.92511 171.654 7.99152 170.873 9.9353C170.093 11.8791 169.027 14.7395 167.676 18.5129V18.479C167.629 19.0319 167.652 19.4866 167.746 19.8433C167.839 20.1999 167.996 20.4692 168.218 20.6529C168.439 20.8383 168.725 20.9649 169.074 21.0345C169.424 21.1023 169.831 21.1361 170.297 21.1361H192.906C193.838 21.1361 194.508 20.9364 194.915 20.5334C195.323 20.1304 195.527 19.4456 195.527 18.479V8.81183Z" fill="white"/>
<path d="M54.8405 36.5829C54.4247 36.981 53.7894 37.1793 52.9364 37.1793H51.5306V40.2023H50.5767V32.9619H52.9364C53.7619 32.9619 54.3895 33.1602 54.8199 33.5553C55.2494 33.9489 55.465 34.4591 55.465 35.0812C55.465 35.6837 55.2563 36.1847 54.8405 36.5829ZM54.1113 36.0576C54.3635 35.829 54.4889 35.5036 54.4889 35.0812C54.4889 34.1881 53.9714 33.7415 52.9364 33.7415H51.5306V36.4012H52.9364C53.4684 36.4012 53.8598 36.2862 54.1113 36.0576Z" fill="white"/>
<path d="M58.1083 39.8027C57.5487 39.4878 57.1069 39.0473 56.7813 38.4827C56.4564 37.9195 56.2936 37.2838 56.2936 36.5768C56.2936 35.8714 56.4564 35.2356 56.7813 34.671C57.1069 34.1063 57.5487 33.6674 58.1083 33.3525C58.6678 33.0376 59.287 32.8802 59.965 32.8802C60.6507 32.8802 61.2729 33.0376 61.8324 33.3525C62.392 33.6674 62.8323 34.1048 63.1541 34.6664C63.4759 35.2265 63.6364 35.8638 63.6364 36.5768C63.6364 37.2913 63.4759 37.9271 63.1541 38.4887C62.8323 39.0488 62.392 39.4878 61.8324 39.8027C61.2729 40.1175 60.6507 40.275 59.965 40.275C59.287 40.275 58.6678 40.1175 58.1083 39.8027ZM61.3447 39.1018C61.7537 38.8656 62.0755 38.5296 62.3094 38.0936C62.5441 37.6577 62.661 37.1521 62.661 36.5768C62.661 35.9955 62.5441 35.4884 62.3094 35.0555C62.0755 34.6225 61.7552 34.2895 61.3501 34.0534C60.9442 33.8172 60.4825 33.7007 59.965 33.7007C59.4475 33.7007 58.9858 33.8172 58.5807 34.0534C58.1748 34.2895 57.8545 34.6225 57.6206 35.0555C57.3859 35.4884 57.269 35.9955 57.269 36.5768C57.269 37.1521 57.3859 37.6577 57.6206 38.0936C57.8545 38.5296 58.1763 38.8656 58.586 39.1018C58.995 39.3364 59.4544 39.4545 59.965 39.4545C60.4756 39.4545 60.9358 39.3364 61.3447 39.1018Z" fill="white"/>
<path d="M74.0843 32.9619L71.9653 40.2023H70.8952L69.1959 34.3758L67.434 40.2023L66.3745 40.2129L64.329 32.9619H65.3464L66.9409 39.1018L68.7029 32.9619H69.773L71.4517 39.0806L73.0561 32.9619H74.0843Z" fill="white"/>
<path d="M76.0878 33.7309V36.1515H78.7525V36.931H76.0878V39.4227H79.0674V40.2023H75.1338V32.9529H79.0674V33.7309H76.0878Z" fill="white"/>
<path d="M84.3647 40.2023L82.6234 37.2414H81.4691V40.2023H80.5151V32.9619H82.8748C83.4275 32.9619 83.8946 33.0558 84.2752 33.2435C84.6567 33.4297 84.9418 33.6825 85.1306 34.0019C85.3194 34.3198 85.4134 34.6831 85.4134 35.0918C85.4134 35.5898 85.2682 36.0303 84.9785 36.4118C84.688 36.7918 84.2531 37.0446 83.6721 37.1687L85.5082 40.2023H84.3647ZM81.4691 36.4845H82.8748C83.3923 36.4845 83.7807 36.3573 84.0398 36.1045C84.2982 35.8517 84.4273 35.5142 84.4273 35.0918C84.4273 34.6634 84.2997 34.3304 84.0451 34.0942C83.7891 33.8596 83.4 33.7415 82.8748 33.7415H81.4691V36.4845Z" fill="white"/>
<path d="M87.8473 33.7309V36.1515H90.512V36.931H87.8473V39.4227H90.8269V40.2023H86.8933V32.9529H90.8269V33.7309H87.8473Z" fill="white"/>
<path d="M96.6227 33.404C97.2067 33.6991 97.6539 34.1185 97.965 34.6664C98.2761 35.2129 98.432 35.8578 98.432 36.598C98.432 37.3398 98.2761 37.9816 97.965 38.525C97.6539 39.0685 97.2067 39.4833 96.6227 39.7709C96.0387 40.0585 95.3484 40.2023 94.5512 40.2023H92.2748V32.9619H94.5512C95.3484 32.9619 96.0387 33.1103 96.6227 33.404ZM96.7121 38.681C97.2082 38.186 97.4567 37.4911 97.4567 36.598C97.4567 35.6973 97.2067 34.9949 96.7068 34.4893C96.2069 33.9837 95.4876 33.7309 94.5512 33.7309H93.2288V39.4227H94.5512C95.4952 39.4227 96.2153 39.176 96.7121 38.681Z" fill="white"/>
<path d="M106.882 36.7948C107.102 36.9689 107.277 37.1838 107.406 37.4397C107.535 37.6955 107.6 37.9695 107.6 38.2601C107.6 38.6265 107.505 38.958 107.317 39.2517C107.128 39.5468 106.853 39.7784 106.493 39.948C106.133 40.1175 105.708 40.2023 105.219 40.2023H102.492V32.9619H105.114C105.61 32.9619 106.033 33.0437 106.383 33.2072C106.733 33.3691 106.995 33.5902 107.17 33.8657C107.345 34.1427 107.432 34.4545 107.432 34.8012C107.432 35.2311 107.315 35.5853 107.081 35.8653C106.846 36.1469 106.537 36.3482 106.152 36.4739C106.418 36.5148 106.662 36.6222 106.882 36.7948ZM103.446 36.0894H105.051C105.499 36.0894 105.844 35.9849 106.09 35.7775C106.334 35.5702 106.457 35.2825 106.457 34.9147C106.457 34.5484 106.334 34.2608 106.09 34.0534C105.844 33.846 105.492 33.7415 105.03 33.7415H103.446V36.0894ZM106.247 39.0912C106.512 38.8687 106.645 38.5614 106.645 38.1663C106.645 37.7651 106.506 37.4488 106.226 37.2156C105.946 36.984 105.572 36.8675 105.104 36.8675H103.446V39.4227H105.135C105.61 39.4227 105.981 39.3122 106.247 39.0912Z" fill="white"/>
<path d="M114.041 32.9619L111.659 37.4699V40.2023H110.705V37.4699L108.313 32.9619H109.373L111.177 36.6298L112.982 32.9619H114.041Z" fill="white"/>
<path d="M118.872 40.0206C118.491 39.8511 118.192 39.615 117.975 39.3137C117.758 39.0125 117.646 38.6643 117.639 38.2707H118.656C118.692 38.6098 118.833 38.8959 119.081 39.1275C119.33 39.3591 119.691 39.4757 120.167 39.4757C120.622 39.4757 120.98 39.3622 121.242 39.1381C121.505 38.9126 121.636 38.6234 121.636 38.2707C121.636 37.9937 121.559 37.7682 121.405 37.5956C121.251 37.4215 121.059 37.2913 120.828 37.2005C120.597 37.1112 120.286 37.0128 119.895 36.9098C119.412 36.7857 119.026 36.6601 118.735 36.5359C118.445 36.4118 118.197 36.215 117.991 35.9486C117.784 35.6822 117.681 35.3234 117.681 34.8738C117.681 34.4787 117.783 34.1291 117.985 33.8248C118.188 33.5205 118.473 33.2844 118.841 33.1179C119.208 32.9529 119.629 32.8696 120.104 32.8696C120.79 32.8696 121.351 33.0391 121.788 33.3782C122.225 33.7173 122.472 34.1669 122.527 34.7285H121.479C121.443 34.4515 121.297 34.2078 121.038 33.9958C120.779 33.7854 120.437 33.6795 120.01 33.6795C119.611 33.6795 119.286 33.7809 119.034 33.9852C118.783 34.1896 118.656 34.4757 118.656 34.842C118.656 35.1054 118.732 35.3204 118.882 35.4869C119.033 35.6534 119.218 35.7791 119.438 35.8653C119.659 35.9531 119.968 36.0515 120.366 36.162C120.85 36.2937 121.237 36.4239 121.531 36.5511C121.825 36.6798 122.076 36.8765 122.287 37.143C122.496 37.4094 122.601 37.7712 122.601 38.2283C122.601 38.5826 122.507 38.9141 122.318 39.2259C122.129 39.5377 121.849 39.7905 121.479 39.9843C121.108 40.1781 120.671 40.275 120.167 40.275C119.685 40.275 119.253 40.1902 118.872 40.0206Z" fill="white"/>
<path d="M128.27 36.5829C127.855 36.981 127.219 37.1793 126.366 37.1793H124.961V40.2023H124.007V32.9619H126.366C127.192 32.9619 127.819 33.1602 128.25 33.5553C128.679 33.9489 128.895 34.4591 128.895 35.0812C128.895 35.6837 128.686 36.1847 128.27 36.5829ZM127.541 36.0576C127.793 35.829 127.919 35.5036 127.919 35.0812C127.919 34.1881 127.401 33.7415 126.366 33.7415H124.961V36.4012H126.366C126.898 36.4012 127.29 36.2862 127.541 36.0576Z" fill="white"/>
<path d="M131.034 32.9619V40.2023H130.08V32.9619H131.034Z" fill="white"/>
<path d="M136.511 40.2023L134.769 37.2414H133.615V40.2023H132.661V32.9619H135.021C135.573 32.9619 136.041 33.0558 136.421 33.2435C136.803 33.4297 137.088 33.6825 137.277 34.0019C137.465 34.3198 137.559 34.6831 137.559 35.0918C137.559 35.5898 137.414 36.0303 137.124 36.4118C136.834 36.7918 136.399 37.0446 135.818 37.1687L137.654 40.2023H136.511ZM133.615 36.4845H135.021C135.538 36.4845 135.927 36.3573 136.186 36.1045C136.444 35.8517 136.573 35.5142 136.573 35.0918C136.573 34.6634 136.446 34.3304 136.191 34.0942C135.935 33.8596 135.546 33.7415 135.021 33.7415H133.615V36.4845Z" fill="white"/>
<path d="M143.36 38.5916H140.171L139.584 40.2023H138.577L141.22 33.0043H142.322L144.955 40.2023H143.947L143.36 38.5916ZM143.088 37.8242L141.766 34.1669L140.444 37.8242H143.088Z" fill="white"/>
<path d="M147.063 39.4333H149.623V40.2023H146.109V32.9619H147.063V39.4333Z" fill="white"/>
<path d="M155.141 32.9619V33.7309H153.148V40.2023H152.193V33.7309H150.19V32.9619H155.141Z" fill="white"/>
<path d="M157.269 33.7309V36.1515H159.934V36.931H157.269V39.4227H160.249V40.2023H156.315V32.9529H160.249V33.7309H157.269Z" fill="white"/>
<path d="M161.822 34.671C162.144 34.1063 162.583 33.6658 163.139 33.3464C163.695 33.0285 164.312 32.8696 164.991 32.8696C165.788 32.8696 166.483 33.0603 167.078 33.4403C167.672 33.8218 168.106 34.3622 168.378 35.0615H167.236C167.032 34.6241 166.74 34.2895 166.36 34.0534C165.978 33.8172 165.522 33.7007 164.991 33.7007C164.48 33.7007 164.022 33.8172 163.616 34.0534C163.21 34.2895 162.892 34.6225 162.661 35.0555C162.431 35.4884 162.315 35.9955 162.315 36.5768C162.315 37.152 162.431 37.6561 162.661 38.0891C162.892 38.522 163.21 38.855 163.616 39.0912C164.022 39.3258 164.48 39.4439 164.991 39.4439C165.522 39.4439 165.978 39.3289 166.36 39.0957C166.74 38.8641 167.032 38.5296 167.236 38.0936H168.378C168.106 38.7869 167.672 39.3213 167.078 39.6982C166.483 40.0767 165.788 40.2644 164.991 40.2644C164.312 40.2644 163.695 40.1069 163.139 39.7921C162.583 39.4772 162.144 39.0397 161.822 38.4781C161.5 37.9165 161.34 37.2837 161.34 36.5768C161.34 35.8714 161.5 35.2356 161.822 34.671Z" fill="white"/>
<path d="M175.429 32.9619V40.2023H174.474V36.9204H170.75V40.2023H169.796V32.9619H170.75V36.1409H174.474V32.9619H175.429Z" fill="white"/>
<path d="M42.0186 0H0V41.6054H42.0186V0Z" fill="#30B7E6"/>
<path d="M42.0186 33.2843H0V42H42.0186V33.2843Z" fill="white"/>
</g>
<defs>
<clipPath id="clip0_9_88">
<rect width="200" height="42" fill="white"/>
</clipPath>
</defs>
</svg>
