<svg width="174" height="28" viewBox="0 0 174 28" fill="none" xmlns="http://www.w3.org/2000/svg">
<path d="M50.4 0L53.5432 9.67376H63.7148L55.4858 15.6525L58.629 25.3262L50.4 19.3475L42.171 25.3262L45.3142 15.6525L37.0852 9.67376H47.2568L50.4 0Z" fill="#FFE100"/>
<path d="M86.8 0L89.9432 9.67376H100.115L91.8858 15.6525L95.029 25.3262L86.8 19.3475L78.571 25.3262L81.7142 15.6525L73.4852 9.67376H83.6568L86.8 0Z" fill="#FFE100"/>
<path d="M123.2 0L126.343 9.67376H136.515L128.286 15.6525L131.429 25.3262L123.2 19.3475L114.971 25.3262L118.114 15.6525L109.885 9.67376H120.057L123.2 0Z" fill="#FFE100"/>
<path d="M159.6 0L162.743 9.67376H172.915L164.686 15.6525L167.829 25.3262L159.6 19.3475L151.371 25.3262L154.514 15.6525L146.285 9.67376H156.457L159.6 0Z" fill="#FFE100"/>
<path d="M14 0L17.1432 9.67376H27.3148L19.0858 15.6525L22.229 25.3262L14 19.3475L5.77101 25.3262L8.9142 15.6525L0.685208 9.67376H10.8568L14 0Z" fill="#FFE100"/>
</svg>
