<svg width="45" height="40" viewBox="0 0 45 40" fill="none" xmlns="http://www.w3.org/2000/svg">
<path d="M37.8776 0.00074551H8.00055C7.9614 0.00074551 7.92226 0.0072706 7.8831 0.0116202C7.77653 0.0050958 7.67213 0.00074551 7.56556 0.00074551C3.64196 0.00074551 0.451538 3.19139 0.451538 7.12368V12.3174C0.451538 12.6567 0.72993 12.9351 1.06923 12.9351C1.07576 12.9351 1.08011 12.9286 1.08663 12.9286H13.4467V37.0095C13.4467 37.1704 13.5141 37.3314 13.625 37.4445L15.9848 39.8173C16.1023 39.9348 16.2567 40 16.4242 40C16.5851 40 16.7461 39.9326 16.8635 39.8173L22.6596 34.0145L28.3555 39.7104C28.473 39.8279 28.6274 39.8931 28.7949 39.8931C28.9558 39.8931 29.1167 39.8257 29.2342 39.7104L35.0281 33.9143L40.7284 39.6102C40.8459 39.7276 41.0003 39.7885 41.1678 39.7885C41.3287 39.7885 41.4897 39.7211 41.6071 39.6058L44.8195 36.387C44.9369 36.2695 44.9978 36.1151 44.9978 35.9476L45 7.12293C44.9935 3.19065 41.8028 0 37.8771 0L37.8776 0.00074551ZM13.4398 11.6932H1.68662V7.11711C1.68662 3.87212 4.32483 1.23191 7.5657 1.23191C7.65488 1.23191 7.74839 1.23843 7.83757 1.24278L7.95936 1.2493C8.48353 1.28193 9.00551 1.39503 9.52315 1.57772C10.3475 1.86698 11.1043 2.34112 11.7177 2.95231C12.8312 4.07239 13.4446 5.54703 13.4446 7.11081L13.4467 11.6934L13.4398 11.6932ZM43.7583 35.7023L41.1636 38.3035L35.4677 32.6076C35.2284 32.3684 34.8326 32.3684 34.5934 32.6076L28.7906 38.4037L23.0963 32.7078C22.8615 32.4729 22.4569 32.4729 22.222 32.7078L16.4259 38.5084L14.6838 36.7598L14.6816 7.12385C14.6816 5.23167 13.9422 3.44384 12.5937 2.09102C12.2827 1.78001 11.9303 1.49075 11.5627 1.23848H37.8819C41.1225 1.23848 43.761 3.87668 43.761 7.12368L43.7632 35.7023H43.7583Z" fill="white"/>
<path d="M36.5813 15.1625H20.9914C20.6521 15.1625 20.3737 15.4409 20.3737 15.7802C20.3737 16.1195 20.6521 16.3979 20.9914 16.3979H36.5813C36.9206 16.3979 37.199 16.1195 37.199 15.7802C37.199 15.4366 36.9206 15.1625 36.5813 15.1625Z" fill="white"/>
<path d="M36.5813 19.4882H20.9914C20.6521 19.4882 20.3737 19.7666 20.3737 20.1059C20.3737 20.4452 20.6521 20.7236 20.9914 20.7236H36.5813C36.9206 20.7236 37.199 20.4452 37.199 20.1059C37.199 19.7666 36.9206 19.4882 36.5813 19.4882Z" fill="white"/>
<path d="M29.6494 23.8205H20.9908C20.6515 23.8205 20.3731 24.0989 20.3731 24.4382C20.3731 24.7775 20.6515 25.0559 20.9908 25.0559H29.6538C29.9931 25.0559 30.2715 24.7775 30.2715 24.4382C30.2715 24.0989 29.993 23.8205 29.6494 23.8205Z" fill="white"/>
</svg>
