<svg width="16" height="18" viewBox="0 0 16 18" fill="none" xmlns="http://www.w3.org/2000/svg">
<path d="M12.2312 0.15094H5.89522L0.799805 5.2466V14.8799C0.799805 16.517 2.13158 17.849 3.76893 17.849H12.2312C13.868 17.849 15.1998 16.517 15.1998 14.8799V3.12007C15.1998 1.48272 13.868 0.15094 12.2312 0.15094ZM14.1007 14.8799C14.1007 15.9127 13.2637 16.7496 12.2312 16.7496H3.76893C2.73595 16.7496 1.89895 15.9127 1.89895 14.8799V5.70201H4.79272C5.65291 5.70201 6.35088 5.00453 6.35088 4.1441V1.25029H12.2312C13.2637 1.25029 14.1007 2.08729 14.1007 3.12007V14.8799Z" fill="white"/>
<path d="M5.09438 8.88884H4.10824C3.92047 8.88884 3.80799 9.01096 3.80799 9.19389V11.7433C3.80799 11.9641 3.95331 12.1097 4.15507 12.1097C4.35248 12.1097 4.49777 11.9642 4.49777 11.7433V10.9688C4.49777 10.95 4.50741 10.9406 4.52625 10.9406H5.09438C5.789 10.9406 6.20701 10.518 6.20701 9.91699C6.20705 9.30661 5.79384 8.88884 5.09438 8.88884ZM5.05194 10.3442H4.52625C4.50741 10.3442 4.49777 10.3348 4.49777 10.3162V9.51321C4.49777 9.49438 4.50741 9.48501 4.52625 9.48501H5.05194C5.34299 9.48501 5.51675 9.65877 5.51675 9.91702C5.51679 10.1752 5.34299 10.3442 5.05194 10.3442Z" fill="white"/>
<path d="M7.79901 8.88884H7.04311C6.85534 8.88884 6.74286 9.01096 6.74286 9.19389V11.781C6.74286 11.9642 6.85531 12.0814 7.04311 12.0814H7.79901C8.47962 12.0814 8.90247 11.8654 9.0714 11.3443C9.13224 11.1611 9.16553 10.9406 9.16553 10.4851C9.16553 10.0297 9.1322 9.8091 9.0714 9.62594C8.90244 9.10485 8.47962 8.88884 7.79901 8.88884ZM8.40962 11.1049C8.3295 11.3583 8.09974 11.4665 7.78017 11.4665H7.46112C7.44228 11.4665 7.43264 11.4571 7.43264 11.4383V9.53205C7.43264 9.51321 7.44228 9.50381 7.46112 9.50381H7.78017C8.09974 9.50381 8.3295 9.61194 8.40962 9.86538C8.44246 9.9735 8.46562 10.1613 8.46562 10.4852C8.46562 10.809 8.44243 10.9968 8.40962 11.1049Z" fill="white"/>
<path d="M11.6351 8.88884H10.0861C9.8983 8.88884 9.78534 9.01096 9.78534 9.19389V11.7433C9.78534 11.9641 9.93114 12.1097 10.1329 12.1097C10.3298 12.1097 10.4756 11.9642 10.4756 11.7433V10.8324C10.4756 10.8138 10.4848 10.8044 10.5036 10.8044H11.4053C11.6071 10.8044 11.7243 10.6824 11.7243 10.5086C11.7243 10.3348 11.6071 10.2129 11.4053 10.2129H10.5036C10.4848 10.2129 10.4756 10.2035 10.4756 10.1847V9.51321C10.4756 9.49438 10.4848 9.48501 10.5036 9.48501H11.6351C11.8277 9.48501 11.9546 9.35829 11.9546 9.18936C11.9546 9.01553 11.8276 8.88884 11.6351 8.88884Z" fill="white"/>
</svg>
