<svg width="45" height="40" viewBox="0 0 45 40" fill="none" xmlns="http://www.w3.org/2000/svg">
<path d="M44.5684 39.1448H43.4272V12.7901C43.4272 11.8497 42.6604 11.0868 41.7153 11.0868H37.6567C36.7116 11.0868 35.9448 11.8497 35.9448 12.7901V39.1448H32.9775L32.9793 18.8055C32.9793 17.8651 32.2125 17.1022 31.2621 17.1022H27.2035C26.2584 17.1022 25.4863 17.8651 25.4863 18.8055V39.1466H22.519L22.5208 24.8187C22.5208 23.8783 21.754 23.1153 20.8036 23.1153H16.7414C15.7963 23.1153 15.0242 23.8783 15.0242 24.8187V39.1448H12.0569V30.8318C12.0569 29.8914 11.2901 29.1285 10.345 29.1285H6.28646C5.34137 29.1285 4.57458 29.8914 4.57458 30.8318V39.1448H3.43332C3.19259 39.1448 3 39.3364 3 39.5724C3 39.8084 3.19259 40 3.42976 40H44.5702C44.8074 40 45 39.8084 45 39.5724C44.9982 39.3364 44.8056 39.1448 44.5684 39.1448ZM36.7987 12.7901C36.7987 12.3181 37.1821 11.9367 37.6565 11.9367H41.715C42.1894 11.9367 42.5728 12.3181 42.5728 12.7901V39.1448H36.7989L36.7987 12.7901ZM26.3403 18.8051C26.3403 18.3331 26.7237 17.9516 27.198 17.9516H31.2566C31.7309 17.9516 32.1143 18.3331 32.1143 18.8051V39.1461L26.3404 39.1443L26.3403 18.8051ZM15.8818 24.8182C15.8818 24.3462 16.2652 23.9648 16.7395 23.9648H20.7981C21.2724 23.9648 21.6558 24.3463 21.6558 24.8182V39.1443H15.882L15.8818 24.8182ZM5.42878 30.8332C5.42878 30.3612 5.81217 29.9797 6.2865 29.9797H10.3451C10.8194 29.9797 11.2028 30.3612 11.2028 30.8332V39.1461L5.42896 39.1443L5.42878 30.8332ZM7.88961 18.528C7.85751 18.2956 8.02156 18.0791 8.25516 18.0472C8.3051 18.0383 13.4908 17.3197 19.8818 14.7681C25.579 12.497 33.3898 8.27759 38.7591 0.981235L36.2377 1.32901C36.0041 1.36095 35.7865 1.19771 35.7544 0.965269C35.7223 0.732828 35.8864 0.516359 36.12 0.484417L39.6258 0.0035653C39.7399 -0.0106295 39.8541 0.01776 39.945 0.0851865C40.0359 0.152613 40.0948 0.253748 40.1091 0.367306L40.5923 3.85568C40.6244 4.08812 40.4603 4.30459 40.2267 4.33654C39.9931 4.36847 39.7756 4.20524 39.7435 3.97279L39.4065 1.55259C37.0562 4.72691 34.0782 7.5889 30.5366 10.0604C27.4731 12.2002 23.9904 14.0527 20.1781 15.5698C13.6907 18.155 8.41768 18.8861 8.36792 18.8949C8.35009 18.9002 8.32691 18.9002 8.30908 18.9002C8.10401 18.8949 7.91677 18.7405 7.89002 18.5276L7.88961 18.528Z" fill="white"/>
</svg>
