<svg width="35" height="40" viewBox="0 0 35 40" fill="none" xmlns="http://www.w3.org/2000/svg">
<path fill-rule="evenodd" clip-rule="evenodd" d="M8.11868 15.4605C8.11868 15.7956 7.84784 16.0664 7.51275 16.0664C7.17766 16.0664 6.90681 15.7956 6.90681 15.4605V15.2157C6.57173 15.115 6.27137 14.931 6.03002 14.6896C5.6498 14.3094 5.41542 13.7851 5.41542 13.207C5.41542 12.8719 5.68626 12.601 6.02136 12.601C6.35644 12.601 6.62729 12.8719 6.62729 13.207C6.62729 13.4518 6.72625 13.6723 6.88598 13.832C7.02661 13.9726 7.21586 14.0664 7.42769 14.0872C7.45547 14.0837 7.48499 14.082 7.51276 14.082C7.54228 14.082 7.57006 14.0837 7.59784 14.0872C7.80792 14.0664 7.99716 13.9726 8.13955 13.832C8.29928 13.6722 8.39824 13.45 8.39824 13.207C8.39824 12.9847 8.30969 12.7955 8.16733 12.6531C7.99197 12.4778 7.74023 12.3614 7.46072 12.318C7.4451 12.3163 7.42947 12.3146 7.41211 12.3111C6.84266 12.2121 6.34438 11.9795 5.98845 11.6218C5.62906 11.2624 5.41723 10.7919 5.41723 10.2225C5.41723 9.64259 5.65161 9.11826 6.03183 8.7398C6.27316 8.49847 6.57354 8.31618 6.90862 8.21374V7.96894C6.90862 7.63385 7.17947 7.363 7.51455 7.363C7.84964 7.363 8.12049 7.63385 8.12049 7.96894V8.21374C8.45557 8.31443 8.75594 8.49847 8.99728 8.7398C9.3775 9.12002 9.61188 9.64437 9.61188 10.2225C9.61188 10.5576 9.34104 10.8284 9.00595 10.8284C8.67086 10.8284 8.40001 10.5576 8.40001 10.2225C8.40001 9.97768 8.30105 9.75717 8.14132 9.59748C8.00069 9.45685 7.81145 9.3631 7.59961 9.34226C7.57183 9.34573 7.54232 9.34747 7.51454 9.34747C7.48502 9.34747 7.45724 9.34573 7.42946 9.34226C7.21938 9.36309 7.03014 9.45685 6.88775 9.59748C6.72802 9.75721 6.62906 9.97944 6.62906 10.2225C6.62906 10.4464 6.70893 10.6287 6.84435 10.7642C7.02144 10.9413 7.29055 11.0593 7.61523 11.1166L7.63085 11.1201C8.17078 11.2 8.6656 11.4361 9.02326 11.7937C9.38613 12.1566 9.61008 12.6358 9.61008 13.2053C9.61008 13.7851 9.3757 14.3095 8.99548 14.6879C8.75415 14.9293 8.45377 15.1116 8.11869 15.214L8.11868 15.4605ZM9.02325 23.1484V19.7524H6.15163V23.1484H9.02325ZM6.15163 26.52H9.02325V24.3619H6.15163V26.52ZM6.15163 29.8917H9.02325V27.7336H6.15163V29.8917ZM10.2351 33.2633H25.6419V31.1052H10.2351V33.2633ZM6.15163 33.2633H9.02325V31.1052H6.15163V33.2633ZM13.1812 10.6375C12.8462 10.6375 12.5753 10.3667 12.5753 10.0316C12.5753 9.69651 12.8461 9.42566 13.1812 9.42566H25.4493C25.7844 9.42566 26.0552 9.6965 26.0552 10.0316C26.0552 10.3667 25.7844 10.6375 25.4493 10.6375H13.1812ZM13.1812 14.5057C12.8462 14.5057 12.5753 14.2349 12.5753 13.8998C12.5753 13.5647 12.8461 13.2938 13.1812 13.2938H25.4493C25.7844 13.2938 26.0552 13.5647 26.0552 13.8998C26.0552 14.2349 25.7844 14.5057 25.4493 14.5057H13.1812ZM25.5635 2.07279V4.93575C25.5635 5.10936 25.6347 5.26909 25.751 5.38368C25.8673 5.5 26.0271 5.57292 26.2007 5.57292L29.0671 5.57466L25.5635 2.07105L25.5635 2.07279ZM32.246 19.0143C31.2928 18.0612 29.9768 17.4709 28.5219 17.4709C27.067 17.4709 25.7509 18.0594 24.7978 19.0143C23.8446 19.9675 23.2543 21.2835 23.2543 22.7384C23.2543 24.1933 23.8428 25.5094 24.7978 26.4625C24.8707 26.5355 24.9488 26.6084 25.027 26.6778L25.0287 26.6796C25.9593 27.5043 27.1833 28.006 28.5236 28.006C29.9785 28.006 31.2946 27.4175 32.2477 26.4625C33.2009 25.5094 33.7912 24.1933 33.7912 22.7384C33.7912 21.2835 33.2027 19.9675 32.2477 19.0143L32.246 19.0143ZM22.0545 23.1517C22.0458 23.0145 22.0423 22.8773 22.0423 22.7384C22.0423 21.662 22.3045 20.6481 22.768 19.754H10.2347V23.1499H22.0547L22.0545 23.1517ZM23.2611 26.5233H10.2361V24.3652H22.2486C22.4517 25.1534 22.799 25.8827 23.2625 26.5233H23.2611ZM25.6431 28.546V29.8932H10.2363V27.7351H24.3964C24.7784 28.0511 25.1968 28.3237 25.6447 28.5459L25.6431 28.546ZM31.1331 16.8077V6.17886C31.1331 6.02434 31.0741 5.86809 30.956 5.75003L25.39 0.184035C25.2807 0.0729193 25.1279 0.00347215 24.9577 0.00347215L2.18618 0C1.6775 0 1.21566 0.208341 0.880577 0.54171C0.545493 0.876794 0.338867 1.33863 0.338867 1.84732V38.1527C0.338867 39.1684 1.1705 40 2.18614 40H29.2845C29.7932 40 30.2551 39.7917 30.5901 39.4583C30.9252 39.1232 31.1318 38.6614 31.1318 38.1527V28.6661C31.8715 28.3397 32.5382 27.8796 33.1024 27.3153C34.2743 26.1434 35 24.5236 35 22.7334C35 20.9451 34.2743 19.3235 33.1024 18.1514C32.5382 17.5872 31.8715 17.1271 31.1318 16.8007L31.1331 16.8077ZM28.5237 16.2608C29.0028 16.2608 29.4716 16.3129 29.9213 16.4119V6.78482L26.2006 6.78308C25.6902 6.78308 25.2284 6.57648 24.895 6.24315C24.5599 5.90806 24.3533 5.44623 24.3533 4.93754L24.3516 1.21171H2.18583C2.01221 1.21171 1.85248 1.28289 1.7379 1.39922C1.62157 1.51554 1.55039 1.67353 1.55039 1.84888V38.1543C1.55039 38.5033 1.83686 38.7897 2.18583 38.7897H29.2842C29.4578 38.7897 29.6176 38.7186 29.7321 38.6022C29.8485 38.4859 29.9197 38.3279 29.9197 38.1543V29.0637C29.47 29.1627 29.0012 29.2148 28.5221 29.2148C27.9456 29.2148 27.3866 29.1384 26.8553 28.9977V33.8659V33.8816V33.8972C26.8553 33.9024 26.8553 33.9076 26.8536 33.9128C26.8536 33.918 26.8518 33.9232 26.8518 33.9284C26.8518 33.9336 26.8501 33.9389 26.8501 33.9441L26.8484 33.9597C26.8466 33.9649 26.8466 33.9701 26.8449 33.9753C26.8432 33.9805 26.8432 33.9857 26.8414 33.9892C26.8397 33.9944 26.8397 33.9996 26.838 34.0031L26.8345 34.017L26.831 34.0309C26.8293 34.0361 26.8275 34.0413 26.8258 34.0448L26.8206 34.0587C26.8189 34.0639 26.8171 34.0673 26.8154 34.0725L26.8102 34.0864L26.805 34.1003C26.8032 34.1055 26.8015 34.109 26.7998 34.1142L26.7859 34.142C26.7841 34.1472 26.7807 34.1507 26.7789 34.1541C26.7772 34.1594 26.7737 34.1628 26.772 34.1663C26.7702 34.1715 26.7668 34.175 26.765 34.1785L26.7581 34.1906C26.7546 34.1941 26.7529 34.1993 26.7494 34.2028L26.7407 34.2149C26.7373 34.2184 26.7355 34.2236 26.7321 34.2271C26.7286 34.2305 26.7268 34.234 26.7234 34.2392L26.7147 34.2514L26.706 34.2618L26.6956 34.2722L26.6852 34.2826L26.6748 34.293C26.6713 34.2965 26.6678 34.3 26.6643 34.3035L26.6539 34.3139C26.6505 34.3173 26.647 34.3208 26.6435 34.3243C26.64 34.3278 26.6366 34.3312 26.6331 34.333C26.6296 34.3364 26.6261 34.3399 26.6209 34.3417L26.6088 34.3503L26.5966 34.359C26.5932 34.3625 26.5879 34.3642 26.5845 34.3677C26.581 34.3712 26.5758 34.3729 26.5723 34.3764L26.5602 34.3833C26.5567 34.3868 26.5515 34.3885 26.548 34.3903L26.5359 34.3972C26.5307 34.3989 26.5272 34.4024 26.5237 34.4042L26.5098 34.4111C26.5046 34.4128 26.5011 34.4146 26.4959 34.418C26.4907 34.4198 26.4873 34.4215 26.482 34.4233L26.4682 34.4285C26.4629 34.4302 26.4595 34.4319 26.4543 34.4337L26.4404 34.4389C26.4352 34.4406 26.4317 34.4423 26.4265 34.4441C26.4213 34.4458 26.4178 34.4476 26.4126 34.4493L26.3987 34.4528C26.3935 34.4545 26.3883 34.4545 26.3848 34.4562C26.3796 34.458 26.3744 34.458 26.3709 34.4597C26.3657 34.4614 26.3605 34.4614 26.357 34.4632C26.3518 34.4649 26.3466 34.4649 26.3414 34.4667C26.3362 34.4684 26.331 34.4684 26.3258 34.4684C26.3206 34.4701 26.3154 34.4701 26.3102 34.4701C26.305 34.4701 26.2997 34.4719 26.2945 34.4719C26.2893 34.4719 26.2841 34.4736 26.2789 34.4736H26.2633H26.2477H9.62879H5.5453H5.52967H5.51404C5.50884 34.4736 5.50363 34.4736 5.49842 34.4719C5.49321 34.4719 5.488 34.4701 5.48279 34.4701L5.46717 34.4684C5.46196 34.4667 5.45675 34.4667 5.45154 34.4667C5.44633 34.4649 5.44112 34.4649 5.43765 34.4632L5.40987 34.4562C5.40466 34.4545 5.39946 34.4545 5.39598 34.4528L5.38209 34.4493C5.37689 34.4476 5.37341 34.4458 5.36821 34.4441C5.363 34.4423 5.35952 34.4406 5.35432 34.4389C5.11472 34.3573 4.94284 34.1316 4.94284 33.8642V33.8538V30.5047V30.4942V30.4838V27.1226V27.1122V23.7509V23.7457V19.1433C4.94284 18.8082 5.21368 18.5374 5.54878 18.5374H23.5877C23.7006 18.4037 23.8204 18.2752 23.9436 18.152C25.1155 16.98 26.7354 16.2543 28.5256 16.2543L28.5237 16.2608ZM27.8413 25.1745C27.8413 24.7977 28.1469 24.4922 28.5237 24.4922C28.9004 24.4922 29.206 24.7977 29.206 25.1745V25.2266C29.206 25.6033 28.9004 25.9089 28.5237 25.9089C28.1469 25.9089 27.8413 25.6033 27.8413 25.2266V25.1745ZM27.9177 20.2543C27.9177 19.9192 28.1886 19.6484 28.5236 19.6484C28.8587 19.6484 29.1296 19.9192 29.1296 20.2543V23.3048C29.1296 23.6399 28.8587 23.9107 28.5236 23.9107C28.1886 23.9107 27.9177 23.6399 27.9177 23.3048V20.2543Z" fill="white"/>
</svg>
